<svg width="132" height="48" viewBox="0 0 132 48" fill="currentColor" xmlns="http://www.w3.org/2000/svg">
<path d="M2.42897 18V17.28H3.74897V1.92H2.89697C2.48097 1.92 2.17297 2.008 1.97297 2.184C1.77297 2.352 1.64097 2.636 1.57697 3.036C1.51297 3.436 1.48097 3.98 1.48097 4.668H0.760969V1.2H8.52497V4.668H7.80497C7.80497 3.98 7.77297 3.436 7.70897 3.036C7.64497 2.636 7.51297 2.352 7.31297 2.184C7.11297 2.008 6.80497 1.92 6.38897 1.92H5.54897V17.28H6.90497V18H2.42897ZM9.39628 18V17.28H10.5963V0.719999H9.39628V-1.43051e-06H12.3963V6.804C12.4123 6.676 12.5083 6.492 12.6843 6.252C12.8603 6.012 13.1003 5.796 13.4043 5.604C13.7163 5.412 14.0843 5.316 14.5083 5.316C14.9163 5.316 15.3003 5.424 15.6603 5.64C16.0203 5.848 16.3123 6.228 16.5363 6.78C16.7603 7.332 16.8723 8.128 16.8723 9.168V17.28H18.0723V18H14.1363V17.28H15.0723V9.396C15.0723 8.324 14.9803 7.564 14.7963 7.116C14.6203 6.66 14.3323 6.432 13.9323 6.432C13.6683 6.432 13.4203 6.552 13.1883 6.792C12.9643 7.024 12.7803 7.328 12.6363 7.704C12.4923 8.08 12.4123 8.48 12.3963 8.904V17.28H13.3563V18H9.39628ZM22.3107 18.252C21.7267 18.252 21.2267 18.08 20.8107 17.736C20.3947 17.384 20.0507 16.904 19.7787 16.296C19.5147 15.688 19.3187 14.992 19.1907 14.208C19.0707 13.416 19.0107 12.576 19.0107 11.688C19.0107 10.616 19.0987 9.68 19.2747 8.88C19.4507 8.08 19.6947 7.42 20.0067 6.9C20.3187 6.372 20.6667 5.98 21.0507 5.724C21.4427 5.46 21.8507 5.328 22.2747 5.328C22.7787 5.328 23.2147 5.48 23.5827 5.784C23.9507 6.08 24.2547 6.484 24.4947 6.996C24.7427 7.5 24.9267 8.076 25.0467 8.724C25.1667 9.364 25.2267 10.028 25.2267 10.716C25.2267 10.876 25.2227 11.036 25.2147 11.196C25.2147 11.356 25.2107 11.516 25.2027 11.676H20.6787V10.944H23.4507C23.4507 9.92 23.4147 9.044 23.3427 8.316C23.2707 7.58 23.1507 7.02 22.9827 6.636C22.8147 6.244 22.5787 6.048 22.2747 6.048C21.9867 6.048 21.7347 6.24 21.5187 6.624C21.3027 7.008 21.1347 7.592 21.0147 8.376C20.9027 9.16 20.8467 10.152 20.8467 11.352C20.8467 12.224 20.8667 13.032 20.9067 13.776C20.9547 14.512 21.0387 15.16 21.1587 15.72C21.2787 16.272 21.4467 16.7 21.6627 17.004C21.8787 17.308 22.1587 17.46 22.5027 17.46C23.0147 17.46 23.4147 17.316 23.7027 17.028C23.9907 16.732 24.1907 16.44 24.3027 16.152L24.9267 16.512C24.7747 16.968 24.4627 17.372 23.9907 17.724C23.5187 18.076 22.9587 18.252 22.3107 18.252ZM37.7618 18.192C37.2338 18.192 36.8418 18.052 36.5858 17.772C36.3298 17.484 36.1618 17.096 36.0818 16.608C36.0098 16.12 35.9738 15.58 35.9738 14.988C35.9738 14.556 35.9818 14.124 35.9978 13.692C36.0218 13.26 36.0338 12.864 36.0338 12.504C36.0338 11.752 35.9778 11.176 35.8658 10.776C35.7618 10.376 35.5578 10.1 35.2538 9.948C34.9578 9.788 34.5178 9.708 33.9338 9.708H33.2498V17.28H34.4138V18H30.2858V17.28H31.4738V1.92H30.2858V1.2H34.6898C35.3298 1.2 35.8978 1.336 36.3938 1.608C36.8978 1.872 37.2938 2.292 37.5818 2.868C37.8698 3.436 38.0138 4.18 38.0138 5.1C38.0138 5.804 37.9298 6.416 37.7618 6.936C37.5938 7.448 37.3698 7.876 37.0898 8.22C36.8178 8.556 36.5058 8.816 36.1538 9C35.8098 9.184 35.4618 9.296 35.1098 9.336C35.8618 9.352 36.4338 9.504 36.8258 9.792C37.2178 10.08 37.4858 10.5 37.6298 11.052C37.7738 11.604 37.8458 12.288 37.8458 13.104C37.8458 13.496 37.8338 13.9 37.8098 14.316C37.7938 14.724 37.7858 15.116 37.7858 15.492C37.7858 15.756 37.7938 16.04 37.8098 16.344C37.8338 16.64 37.8778 16.892 37.9418 17.1C38.0138 17.308 38.1098 17.412 38.2298 17.412C38.3098 17.412 38.3738 17.372 38.4218 17.292C38.4778 17.212 38.5098 17.124 38.5178 17.028H39.1778C39.1538 17.292 39.0738 17.512 38.9378 17.688C38.8098 17.856 38.6418 17.98 38.4338 18.06C38.2338 18.148 38.0098 18.192 37.7618 18.192ZM33.2498 8.988H34.1978C34.6698 8.988 35.0498 8.816 35.3378 8.472C35.6258 8.128 35.8378 7.668 35.9738 7.092C36.1098 6.508 36.1778 5.86 36.1778 5.148C36.1778 4.484 36.1218 3.912 36.0098 3.432C35.9058 2.952 35.7178 2.58 35.4458 2.316C35.1738 2.052 34.7938 1.92 34.3058 1.92H33.2498V8.988ZM42.5547 18.252C42.0827 18.252 41.6547 18.136 41.2707 17.904C40.8947 17.664 40.5947 17.316 40.3707 16.86C40.1547 16.396 40.0467 15.824 40.0467 15.144C40.0467 14.392 40.1907 13.772 40.4787 13.284C40.7667 12.788 41.1227 12.372 41.5467 12.036C41.9787 11.692 42.4067 11.384 42.8307 11.112C43.2627 10.84 43.6227 10.556 43.9107 10.26C44.1987 9.956 44.3427 9.592 44.3427 9.168C44.3427 8.568 44.2947 8.04 44.1987 7.584C44.1107 7.12 43.9627 6.76 43.7547 6.504C43.5547 6.248 43.2787 6.12 42.9267 6.12C42.5267 6.12 42.1947 6.252 41.9307 6.516C41.6667 6.78 41.5347 7.084 41.5347 7.428C41.5347 7.612 41.5627 7.764 41.6187 7.884C41.6747 7.996 41.7267 8.116 41.7747 8.244C41.8307 8.364 41.8587 8.524 41.8587 8.724C41.8587 9.004 41.7907 9.236 41.6547 9.42C41.5187 9.596 41.3227 9.684 41.0667 9.684C40.8187 9.684 40.6267 9.576 40.4907 9.36C40.3547 9.144 40.2867 8.844 40.2867 8.46C40.2867 7.876 40.4067 7.348 40.6467 6.876C40.8947 6.396 41.2387 6.02 41.6787 5.748C42.1187 5.468 42.6307 5.328 43.2147 5.328C43.7987 5.328 44.3067 5.464 44.7387 5.736C45.1787 6 45.5227 6.428 45.7707 7.02C46.0187 7.604 46.1427 8.372 46.1427 9.324V16.44C46.1427 16.776 46.1787 17.004 46.2507 17.124C46.3307 17.244 46.4427 17.304 46.5867 17.304C46.7067 17.304 46.8107 17.276 46.8987 17.22C46.9947 17.164 47.0627 17.112 47.1027 17.064L47.4867 17.676C47.3827 17.788 47.1987 17.896 46.9347 18C46.6787 18.104 46.3787 18.156 46.0347 18.156C45.7147 18.156 45.4427 18.104 45.2187 18C45.0027 17.896 44.8347 17.756 44.7147 17.58C44.5947 17.396 44.5267 17.192 44.5107 16.968C44.4627 17.104 44.3667 17.276 44.2227 17.484C44.0867 17.684 43.8827 17.86 43.6107 18.012C43.3387 18.172 42.9867 18.252 42.5547 18.252ZM43.0467 17.28C43.3267 17.28 43.5627 17.172 43.7547 16.956C43.9467 16.74 44.0907 16.484 44.1867 16.188C44.2907 15.884 44.3427 15.612 44.3427 15.372V10.656C44.3187 10.88 44.1827 11.104 43.9347 11.328C43.6867 11.552 43.4067 11.812 43.0947 12.108C42.7827 12.404 42.5067 12.78 42.2667 13.236C42.0347 13.692 41.9187 14.264 41.9187 14.952C41.9187 15.704 42.0147 16.28 42.2067 16.68C42.3987 17.08 42.6787 17.28 43.0467 17.28ZM47.8338 18V17.28H49.0458V6.156H47.8338V5.436H50.8098V6.804C50.8578 6.604 50.9698 6.392 51.1458 6.168C51.3218 5.936 51.5538 5.74 51.8418 5.58C52.1378 5.412 52.4778 5.328 52.8618 5.328C53.2378 5.328 53.6018 5.42 53.9538 5.604C54.3058 5.788 54.5938 6.144 54.8178 6.672C55.0498 7.2 55.1658 7.98 55.1658 9.012V17.28H56.3538V18H52.3578V17.28H53.3658V9.216C53.3658 8.208 53.2738 7.484 53.0898 7.044C52.9138 6.604 52.6338 6.384 52.2498 6.384C52.0498 6.384 51.8658 6.46 51.6978 6.612C51.5298 6.756 51.3818 6.952 51.2538 7.2C51.1258 7.44 51.0258 7.708 50.9538 8.004C50.8898 8.292 50.8538 8.58 50.8458 8.868V17.28H51.8418V18H47.8338ZM60.3802 18.24C59.8442 18.24 59.3562 18.032 58.9162 17.616C58.4842 17.2 58.1362 16.52 57.8722 15.576C57.6162 14.632 57.4882 13.368 57.4882 11.784C57.4882 10.24 57.6162 8.996 57.8722 8.052C58.1282 7.108 58.4642 6.42 58.8802 5.988C59.3042 5.556 59.7642 5.34 60.2602 5.34C60.6602 5.34 60.9762 5.424 61.2082 5.592C61.4482 5.76 61.6242 5.952 61.7362 6.168C61.8562 6.384 61.9322 6.572 61.9642 6.732V0.732H60.6322V-1.43051e-06H63.8002V17.28H65.1082V18H62.1802L62.0602 16.5C62.0442 16.708 61.9682 16.952 61.8322 17.232C61.7042 17.504 61.5202 17.74 61.2802 17.94C61.0482 18.14 60.7482 18.24 60.3802 18.24ZM60.6922 17.184C60.9402 17.184 61.1522 17.032 61.3282 16.728C61.5122 16.416 61.6602 16.028 61.7722 15.564C61.8842 15.092 61.9482 14.62 61.9642 14.148V8.868C61.9322 8.468 61.8562 8.088 61.7362 7.728C61.6162 7.36 61.4642 7.064 61.2802 6.84C61.0962 6.608 60.8882 6.492 60.6562 6.492C60.4082 6.492 60.2002 6.632 60.0322 6.912C59.8642 7.184 59.7282 7.564 59.6242 8.052C59.5202 8.54 59.4442 9.108 59.3962 9.756C59.3562 10.396 59.3362 11.088 59.3362 11.832C59.3362 12.68 59.3602 13.436 59.4082 14.1C59.4642 14.764 59.5442 15.328 59.6482 15.792C59.7522 16.248 59.8882 16.596 60.0562 16.836C60.2322 17.068 60.4442 17.184 60.6922 17.184ZM69.2097 18.264C68.7617 18.264 68.3377 18.12 67.9377 17.832C67.5457 17.544 67.1937 17.12 66.8817 16.56C66.5697 16 66.3257 15.312 66.1497 14.496C65.9737 13.68 65.8857 12.74 65.8857 11.676C65.8857 10.516 65.9777 9.532 66.1617 8.724C66.3537 7.916 66.6057 7.264 66.9177 6.768C67.2377 6.264 67.5937 5.9 67.9857 5.676C68.3857 5.444 68.7937 5.328 69.2097 5.328C69.6177 5.328 70.0177 5.444 70.4097 5.676C70.8097 5.9 71.1657 6.264 71.4777 6.768C71.7977 7.264 72.0537 7.916 72.2457 8.724C72.4377 9.532 72.5337 10.516 72.5337 11.676C72.5337 12.74 72.4417 13.68 72.2577 14.496C72.0817 15.312 71.8377 16 71.5257 16.56C71.2137 17.12 70.8577 17.544 70.4577 17.832C70.0577 18.12 69.6417 18.264 69.2097 18.264ZM69.2097 17.508C69.6417 17.508 69.9937 17.032 70.2657 16.08C70.5377 15.128 70.6737 13.66 70.6737 11.676C70.6737 9.716 70.5377 8.296 70.2657 7.416C69.9937 6.528 69.6417 6.084 69.2097 6.084C68.7697 6.084 68.4097 6.528 68.1297 7.416C67.8577 8.296 67.7217 9.716 67.7217 11.676C67.7217 13.66 67.8577 15.128 68.1297 16.08C68.4097 17.032 68.7697 17.508 69.2097 17.508ZM73.615 18V17.28H74.743V6.156H73.615V5.436H76.507V6.888C76.531 6.736 76.619 6.536 76.771 6.288C76.923 6.04 77.147 5.82 77.443 5.628C77.739 5.436 78.107 5.34 78.547 5.34C78.995 5.34 79.355 5.456 79.627 5.688C79.907 5.912 80.111 6.168 80.239 6.456C80.375 6.736 80.451 6.96 80.467 7.128C80.515 6.88 80.635 6.62 80.827 6.348C81.027 6.068 81.291 5.832 81.619 5.64C81.947 5.44 82.327 5.34 82.759 5.34C83.463 5.34 83.987 5.632 84.331 6.216C84.683 6.8 84.859 7.528 84.859 8.4V17.28H85.951V18H82.099V17.28H83.059V9.732C83.059 9.036 83.039 8.444 82.999 7.956C82.967 7.46 82.883 7.084 82.747 6.828C82.611 6.564 82.387 6.432 82.075 6.432C81.763 6.432 81.503 6.568 81.295 6.84C81.095 7.112 80.943 7.46 80.839 7.884C80.735 8.308 80.675 8.748 80.659 9.204V17.28H81.643V18H77.935V17.28H78.883V9.732C78.883 8.684 78.831 7.872 78.727 7.296C78.631 6.72 78.347 6.432 77.875 6.432C77.571 6.432 77.319 6.572 77.119 6.852C76.927 7.132 76.783 7.488 76.687 7.92C76.599 8.352 76.551 8.804 76.543 9.276V17.28H77.479V18H73.615ZM90.7128 18V17.28H91.8168V1.92H90.7128V1.2H96.9768V4.668H96.2448C96.2448 4.02 96.2128 3.496 96.1488 3.096C96.0928 2.688 95.9688 2.392 95.7768 2.208C95.5848 2.016 95.2848 1.92 94.8768 1.92H93.6288V9.108H95.8488V7.92H96.5688V11.016H95.8488V9.84H93.6288V17.28H94.7328V18H90.7128ZM101.071 18.264C100.631 18.264 100.223 18.172 99.847 17.988C99.479 17.804 99.183 17.46 98.959 16.956C98.743 16.444 98.635 15.7 98.635 14.724V6.156H97.435V5.448H100.435V14.544C100.435 15.288 100.479 15.86 100.567 16.26C100.655 16.652 100.783 16.924 100.951 17.076C101.119 17.22 101.311 17.292 101.527 17.292C101.831 17.292 102.091 17.14 102.307 16.836C102.531 16.532 102.699 16.136 102.811 15.648C102.923 15.16 102.979 14.636 102.979 14.076V6.156H101.839V5.448H104.779V17.28H105.847V18H103.159L103.087 16.572C103.047 16.796 102.947 17.04 102.787 17.304C102.627 17.568 102.403 17.796 102.115 17.988C101.835 18.172 101.487 18.264 101.071 18.264ZM106.521 18V17.28H107.733V6.156H106.521V5.436H109.497V6.804C109.545 6.604 109.657 6.392 109.833 6.168C110.009 5.936 110.241 5.74 110.529 5.58C110.825 5.412 111.165 5.328 111.549 5.328C111.925 5.328 112.289 5.42 112.641 5.604C112.993 5.788 113.281 6.144 113.505 6.672C113.737 7.2 113.853 7.98 113.853 9.012V17.28H115.041V18H111.045V17.28H112.053V9.216C112.053 8.208 111.961 7.484 111.777 7.044C111.601 6.604 111.321 6.384 110.937 6.384C110.737 6.384 110.553 6.46 110.385 6.612C110.217 6.756 110.069 6.952 109.941 7.2C109.813 7.44 109.713 7.708 109.641 8.004C109.577 8.292 109.541 8.58 109.533 8.868V17.28H110.529V18H106.521ZM115.615 18V17.28H116.827V6.156H115.615V5.436H118.591V6.804C118.639 6.604 118.751 6.392 118.927 6.168C119.103 5.936 119.335 5.74 119.623 5.58C119.919 5.412 120.259 5.328 120.643 5.328C121.019 5.328 121.383 5.42 121.735 5.604C122.087 5.788 122.375 6.144 122.599 6.672C122.831 7.2 122.947 7.98 122.947 9.012V17.28H124.135V18H120.139V17.28H121.147V9.216C121.147 8.208 121.055 7.484 120.871 7.044C120.695 6.604 120.415 6.384 120.031 6.384C119.831 6.384 119.647 6.46 119.479 6.612C119.311 6.756 119.163 6.952 119.035 7.2C118.907 7.44 118.807 7.708 118.735 8.004C118.671 8.292 118.635 8.58 118.627 8.868V17.28H119.623V18H115.615ZM126.193 24.024C125.873 24.024 125.605 23.9 125.389 23.652C125.173 23.404 125.009 23.064 124.897 22.632C124.793 22.208 124.741 21.728 124.741 21.192C124.741 20.808 124.809 20.512 124.945 20.304C125.081 20.104 125.269 20.004 125.509 20.004C125.757 20.004 125.945 20.096 126.073 20.28C126.209 20.464 126.277 20.708 126.277 21.012C126.277 21.236 126.237 21.424 126.157 21.576C126.085 21.736 126.009 21.888 125.929 22.032C125.857 22.176 125.821 22.352 125.821 22.56C125.821 22.784 125.853 22.984 125.917 23.16C125.989 23.336 126.101 23.424 126.253 23.424C126.357 23.424 126.441 23.368 126.505 23.256C126.577 23.152 126.637 23 126.685 22.8C126.741 22.608 126.797 22.384 126.853 22.128L127.693 17.916L125.161 6.156H124.165V5.436H127.981V6.156H127.069L128.569 13.74L129.973 6.156H129.085V5.436H131.713V6.156H130.777L128.401 18.084L127.525 22.308C127.461 22.668 127.373 22.976 127.261 23.232C127.149 23.488 127.009 23.684 126.841 23.82C126.673 23.956 126.457 24.024 126.193 24.024ZM6.83203 32.4805V32.668C6.83984 32.7305 6.85156 32.8164 6.86719 32.9258C6.89062 33.0352 6.91406 33.1445 6.9375 33.2539C6.96094 33.3555 6.98047 33.4492 6.99609 33.5352C7.01172 33.6133 7.02344 33.6562 7.03125 33.6641C7.03125 33.6797 7.05469 33.7148 7.10156 33.7695C7.15625 33.8164 7.21484 33.8711 7.27734 33.9336C7.33984 33.9883 7.39844 34.043 7.45312 34.0977C7.50781 34.1445 7.54297 34.1758 7.55859 34.1914C7.56641 34.207 7.57812 34.2422 7.59375 34.2969C7.61719 34.3516 7.63672 34.4102 7.65234 34.4727C7.67578 34.5273 7.69531 34.582 7.71094 34.6367C7.72656 34.6836 7.73828 34.7109 7.74609 34.7188C7.75391 34.7344 7.78125 34.7656 7.82812 34.8125C7.875 34.8594 7.92578 34.9141 7.98047 34.9766C8.03516 35.0312 8.08594 35.0859 8.13281 35.1406C8.1875 35.1875 8.22656 35.2227 8.25 35.2461C8.28125 35.2773 8.32812 35.3125 8.39062 35.3516C8.45312 35.3828 8.51953 35.4141 8.58984 35.4453C8.66016 35.4766 8.72656 35.5039 8.78906 35.5273C8.85156 35.543 8.90234 35.5508 8.94141 35.5508C8.99609 35.5508 9.07031 35.5117 9.16406 35.4336C9.26562 35.3477 9.37109 35.2422 9.48047 35.1172C9.59766 34.9922 9.71484 34.8555 9.83203 34.707C9.95703 34.5508 10.0703 34.4062 10.1719 34.2734C10.2734 34.1328 10.3555 34.0078 10.418 33.8984C10.4883 33.7891 10.5234 33.7109 10.5234 33.6641C10.5234 33.6094 10.5273 33.5547 10.5352 33.5C10.543 33.4531 10.5469 33.4102 10.5469 33.3711C10.5547 33.3242 10.5586 33.2852 10.5586 33.2539C10.5586 32.9727 10.543 32.6914 10.5117 32.4102C10.4805 32.1211 10.3867 31.8555 10.2305 31.6133C10.1914 31.5117 10.1211 31.3867 10.0195 31.2383C9.91797 31.082 9.8125 30.9648 9.70312 30.8867C9.57031 30.793 9.42969 30.6914 9.28125 30.582C9.13281 30.4727 8.97656 30.418 8.8125 30.418H8.73047C8.68359 30.4258 8.60547 30.4492 8.49609 30.4883C8.38672 30.5273 8.27344 30.5742 8.15625 30.6289C8.04688 30.6758 7.94141 30.7266 7.83984 30.7812C7.73828 30.8281 7.67188 30.8633 7.64062 30.8867C7.60938 30.9102 7.5625 30.9492 7.5 31.0039C7.4375 31.0508 7.37109 31.1094 7.30078 31.1797C7.23828 31.2422 7.17969 31.3047 7.125 31.3672C7.07812 31.4297 7.04688 31.4766 7.03125 31.5078C7.02344 31.5234 7.01172 31.5664 6.99609 31.6367C6.98047 31.6992 6.96094 31.7734 6.9375 31.8594C6.91406 31.9453 6.89062 32.0352 6.86719 32.1289C6.85156 32.2148 6.83984 32.2852 6.83203 32.3398V32.4805ZM5.48438 44.3867C5.54688 44.4336 5.63281 44.5 5.74219 44.5859C5.85156 44.6719 5.94922 44.7344 6.03516 44.7734C6.07422 44.8359 6.14453 44.8867 6.24609 44.9258C6.35547 44.9648 6.50391 45.0273 6.69141 45.1133C6.97266 45.1133 7.23828 45.1406 7.48828 45.1953C7.74609 45.25 8 45.2773 8.25 45.2773C8.44531 45.2773 8.64844 45.2539 8.85938 45.207C9.07031 45.1523 9.26562 45.0859 9.44531 45.0078C9.5 44.9844 9.57422 44.957 9.66797 44.9258C9.76172 44.8867 9.85547 44.8516 9.94922 44.8203C10.043 44.7812 10.125 44.75 10.1953 44.7266C10.2734 44.6953 10.3203 44.6758 10.3359 44.668C10.3438 44.6602 10.3711 44.6367 10.418 44.5977C10.4727 44.5586 10.5312 44.5195 10.5938 44.4805C10.6562 44.4414 10.7148 44.4062 10.7695 44.375C10.8242 44.3359 10.8633 44.3125 10.8867 44.3047C10.9727 44.25 11.0703 44.1992 11.1797 44.1523C11.2969 44.1055 11.4023 44.0508 11.4961 43.9883C11.5977 43.918 11.6836 43.8398 11.7539 43.7539C11.8242 43.668 11.8594 43.5547 11.8594 43.4141C11.8594 43.3203 11.8555 43.2461 11.8477 43.1914C11.8398 43.1289 11.8086 43.0547 11.7539 42.9688C11.707 42.8984 11.6328 42.7891 11.5312 42.6406C11.4375 42.4922 11.3281 42.3281 11.2031 42.1484C11.0781 41.9609 10.9414 41.7656 10.793 41.5625C10.6523 41.3594 10.5156 41.168 10.3828 40.9883C10.25 40.8086 10.1289 40.6484 10.0195 40.5078C9.91797 40.3594 9.83984 40.2539 9.78516 40.1914C9.75391 40.1523 9.68359 40.0625 9.57422 39.9219C9.46484 39.7812 9.34375 39.6289 9.21094 39.4648C9.07812 39.3008 8.94531 39.1406 8.8125 38.9844C8.6875 38.8281 8.59375 38.7148 8.53125 38.6445C8.35156 38.4414 8.16016 38.2422 7.95703 38.0469C7.75391 37.8516 7.55859 37.6445 7.37109 37.4258C7.30859 37.3242 7.25 37.2305 7.19531 37.1445C7.14844 37.0508 7.05859 36.9844 6.92578 36.9453C6.91797 36.9453 6.87109 36.9375 6.78516 36.9219C6.70703 36.9062 6.64844 36.8984 6.60938 36.8984C6.5 36.8984 6.39844 36.9062 6.30469 36.9219C6.21094 36.9297 6.12109 36.9766 6.03516 37.0625C5.68359 37.3672 5.40234 37.7109 5.19141 38.0938C4.98828 38.4688 4.78906 38.8711 4.59375 39.3008C4.48438 39.5117 4.37891 39.7266 4.27734 39.9453C4.17578 40.1562 4.10547 40.3867 4.06641 40.6367C4.06641 40.6445 4.06641 40.6719 4.06641 40.7188C4.06641 40.7656 4.0625 40.8242 4.05469 40.8945C4.05469 40.957 4.05469 41.0273 4.05469 41.1055C4.05469 41.1758 4.05469 41.2344 4.05469 41.2812C4.05469 41.3047 4.05469 41.3438 4.05469 41.3984C4.05469 41.4531 4.05469 41.5117 4.05469 41.5742C4.0625 41.6367 4.06641 41.6953 4.06641 41.75C4.06641 41.8047 4.06641 41.8438 4.06641 41.8672C4.22266 42.125 4.33984 42.3945 4.41797 42.6758C4.50391 42.957 4.59766 43.2344 4.69922 43.5078C4.71484 43.5234 4.72656 43.5547 4.73438 43.6016C4.75 43.6406 4.76562 43.6641 4.78125 43.6719C4.79688 43.6953 4.83594 43.7422 4.89844 43.8125C4.96094 43.8828 5.03125 43.957 5.10938 44.0352C5.1875 44.1133 5.26172 44.1875 5.33203 44.2578C5.40234 44.3203 5.45312 44.3633 5.48438 44.3867ZM1.94531 42.1953V41.8672C1.95312 41.8203 1.96484 41.7812 1.98047 41.75C1.99609 41.6719 2.01172 41.625 2.02734 41.6094V41.1641C2.02734 40.8047 2.08203 40.4375 2.19141 40.0625C2.30859 39.6875 2.46484 39.3281 2.66016 38.9844C2.86328 38.6406 3.10156 38.3242 3.375 38.0352C3.64844 37.7461 3.94141 37.5039 4.25391 37.3086C4.26953 37.3008 4.31641 37.2773 4.39453 37.2383C4.47266 37.1914 4.55469 37.1406 4.64062 37.0859C4.73438 37.0312 4.82031 36.9844 4.89844 36.9453C4.97656 36.8984 5.02344 36.8711 5.03906 36.8633C5.07812 36.8477 5.14062 36.8125 5.22656 36.7578C5.32031 36.6953 5.41406 36.6328 5.50781 36.5703C5.60156 36.5 5.69141 36.4336 5.77734 36.3711C5.86328 36.3008 5.91797 36.2539 5.94141 36.2305C5.94922 36.2305 5.96484 36.207 5.98828 36.1602C6.01953 36.1133 6.03516 36.0859 6.03516 36.0781C6.03516 36.0234 5.98438 35.9219 5.88281 35.7734C5.78125 35.625 5.66406 35.4648 5.53125 35.293C5.40625 35.1211 5.28906 34.9492 5.17969 34.7773C5.07031 34.6055 5.00391 34.4688 4.98047 34.3672C4.96484 34.3203 4.94531 34.2578 4.92188 34.1797C4.89844 34.1016 4.875 34.0234 4.85156 33.9453C4.83594 33.8594 4.82031 33.7812 4.80469 33.7109C4.78906 33.6328 4.78125 33.582 4.78125 33.5586C4.76562 33.543 4.75781 33.4766 4.75781 33.3594C4.75781 33.2422 4.75781 33.1445 4.75781 33.0664C4.75781 32.7305 4.81641 32.4141 4.93359 32.1172C5.05859 31.8203 5.22266 31.5312 5.42578 31.25C5.54297 31.0625 5.68359 30.9062 5.84766 30.7812C6.01172 30.6484 6.1875 30.5352 6.375 30.4414C6.5625 30.3477 6.75391 30.2617 6.94922 30.1836C7.15234 30.1055 7.34766 30.0195 7.53516 29.9258C7.94141 29.832 8.33984 29.7852 8.73047 29.7852C9.16016 29.7852 9.60156 29.8281 10.0547 29.9141C10.0625 29.9141 10.1133 29.9336 10.207 29.9727C10.3008 30.0117 10.4062 30.0586 10.5234 30.1133C10.6484 30.168 10.7734 30.2266 10.8984 30.2891C11.0312 30.3438 11.1406 30.3867 11.2266 30.418C11.3281 30.4805 11.4531 30.5859 11.6016 30.7344C11.7578 30.875 11.9062 31.0352 12.0469 31.2148C12.1875 31.3867 12.3086 31.5625 12.4102 31.7422C12.5117 31.9219 12.5625 32.082 12.5625 32.2227V33.6641C12.5625 33.6719 12.5508 33.7109 12.5273 33.7812C12.5039 33.8438 12.4844 33.8828 12.4688 33.8984C12.4531 33.9375 12.4297 33.9883 12.3984 34.0508C12.375 34.1133 12.3516 34.1758 12.3281 34.2383C12.3047 34.293 12.2812 34.3438 12.2578 34.3906C12.2422 34.4375 12.2305 34.4648 12.2227 34.4727C12.207 34.4883 12.1562 34.5195 12.0703 34.5664C11.9922 34.6133 11.9492 34.6367 11.9414 34.6367C11.9336 34.6523 11.918 34.6875 11.8945 34.7422C11.8711 34.7891 11.8438 34.8438 11.8125 34.9062C11.7891 34.9609 11.7617 35.0156 11.7305 35.0703C11.6992 35.125 11.6719 35.1562 11.6484 35.1641C11.5703 35.3047 11.4219 35.4375 11.2031 35.5625C10.9844 35.6875 10.7578 35.8047 10.5234 35.9141C10.2891 36.0156 10.0781 36.1133 9.89062 36.207C9.71094 36.293 9.62109 36.3711 9.62109 36.4414V36.5C9.71484 36.6953 9.83984 36.875 9.99609 37.0391C10.1523 37.1953 10.293 37.3594 10.418 37.5312C10.6602 37.7969 10.8984 38.0703 11.1328 38.3516C11.3672 38.6328 11.6094 38.9219 11.8594 39.2188C11.8594 39.2266 11.8828 39.2656 11.9297 39.3359C11.9766 39.4062 12.0078 39.4453 12.0234 39.4531C12.0547 39.4922 12.1133 39.5703 12.1992 39.6875C12.293 39.8047 12.3906 39.9297 12.4922 40.0625C12.6016 40.1953 12.7031 40.3242 12.7969 40.4492C12.8906 40.5664 12.9609 40.6484 13.0078 40.6953C13.0938 40.7969 13.1719 40.8594 13.2422 40.8828C13.3203 40.9062 13.4141 40.918 13.5234 40.918H13.7227L13.7461 40.8711C13.7539 40.8555 13.7617 40.8438 13.7695 40.8359C13.7773 40.8281 13.7812 40.8164 13.7812 40.8008C13.9609 40.5742 14.1523 40.3555 14.3555 40.1445C14.5664 39.9336 14.7383 39.7031 14.8711 39.4531C14.8867 39.4375 14.918 39.3867 14.9648 39.3008C15.0117 39.207 15.0586 39.1094 15.1055 39.0078C15.1602 38.9062 15.207 38.8125 15.2461 38.7266C15.293 38.6406 15.3242 38.5859 15.3398 38.5625C15.3945 38.4688 15.4453 38.3906 15.4922 38.3281C15.5391 38.2578 15.5781 38.1953 15.6094 38.1406C15.6406 38.0781 15.6641 38.0117 15.6797 37.9414C15.6953 37.8711 15.7031 37.7812 15.7031 37.6719C15.7031 37.4844 15.6562 37.3438 15.5625 37.25C15.4766 37.1562 15.3672 37.0859 15.2344 37.0391C15.1016 36.9922 14.957 36.9648 14.8008 36.957C14.6445 36.9414 14.5 36.918 14.3672 36.8867C14.2344 36.8555 14.1211 36.8086 14.0273 36.7461C13.9414 36.6758 13.8984 36.5664 13.8984 36.418V36.2305L13.9688 36.207C13.9844 36.1992 14.0039 36.1914 14.0273 36.1836C14.0508 36.1758 14.0703 36.1719 14.0859 36.1719C14.2031 36.125 14.3125 36.0898 14.4141 36.0664C14.5156 36.043 14.6172 36.0273 14.7188 36.0195C14.8203 36.0117 14.9258 36.0078 15.0352 36.0078C15.1523 36 15.2812 35.9883 15.4219 35.9727C15.9219 35.918 16.4062 35.875 16.875 35.8438C17.3516 35.8047 17.8359 35.7852 18.3281 35.7852H19.3828C19.5 35.8086 19.6211 35.8516 19.7461 35.9141C19.8789 35.9688 19.9453 36.0703 19.9453 36.2188C19.9453 36.2266 19.9375 36.2461 19.9219 36.2773C19.9141 36.293 19.9102 36.3125 19.9102 36.3359C19.9023 36.3594 19.8828 36.3906 19.8516 36.4297C19.8203 36.4609 19.7852 36.4961 19.7461 36.5352C19.707 36.5742 19.668 36.6094 19.6289 36.6406C19.5898 36.6719 19.5664 36.6914 19.5586 36.6992C19.043 36.7305 18.5977 36.8398 18.2227 37.0273C17.8477 37.207 17.5 37.4336 17.1797 37.707C16.8672 37.9727 16.5664 38.2695 16.2773 38.5977C15.9883 38.9258 15.6758 39.2539 15.3398 39.582C15.3398 39.5977 15.3281 39.6367 15.3047 39.6992C15.2891 39.7617 15.2734 39.8047 15.2578 39.8281C15.2344 39.8516 15.1914 39.9062 15.1289 39.9922C15.0664 40.0781 14.9961 40.1758 14.918 40.2852C14.8477 40.3867 14.7734 40.4883 14.6953 40.5898C14.625 40.6836 14.5703 40.7539 14.5312 40.8008C14.4453 40.9102 14.3633 41.0078 14.2852 41.0938C14.2148 41.1719 14.1484 41.2539 14.0859 41.3398C14.0312 41.418 13.9844 41.5078 13.9453 41.6094C13.9141 41.7031 13.8984 41.8164 13.8984 41.9492V42.2305C13.9062 42.2539 13.9258 42.2891 13.957 42.3359C13.9961 42.375 14.0391 42.418 14.0859 42.4648C14.1328 42.5117 14.1719 42.5586 14.2031 42.6055C14.2422 42.6445 14.2656 42.6719 14.2734 42.6875C14.4062 42.875 14.5352 43.0586 14.6602 43.2383C14.793 43.418 14.9609 43.5625 15.1641 43.6719C15.1953 43.6719 15.2578 43.6992 15.3516 43.7539C15.4453 43.8086 15.5117 43.8438 15.5508 43.8594C15.5664 43.8828 15.6211 43.9336 15.7148 44.0117C15.8086 44.082 15.9102 44.1641 16.0195 44.2578C16.1367 44.3438 16.2422 44.4297 16.3359 44.5156C16.4375 44.5938 16.5 44.6445 16.5234 44.668C16.7031 44.793 16.8828 44.8672 17.0625 44.8906C17.25 44.9062 17.4453 44.9141 17.6484 44.9141C17.7422 44.9141 17.8594 44.9141 18 44.9141C18.1406 44.9062 18.2852 44.8945 18.4336 44.8789C18.582 44.8633 18.7227 44.8398 18.8555 44.8086C18.9883 44.7773 19.0938 44.7305 19.1719 44.668C19.2266 44.6289 19.2812 44.5742 19.3359 44.5039C19.3984 44.4336 19.4609 44.3633 19.5234 44.293C19.5938 44.2227 19.668 44.1641 19.7461 44.1172C19.8242 44.0625 19.9102 44.0352 20.0039 44.0352C20.1055 44.0352 20.1758 44.0781 20.2148 44.1641C20.2617 44.25 20.2852 44.3359 20.2852 44.4219C20.2852 44.4297 20.2812 44.4375 20.2734 44.4453C20.2734 44.4453 20.2734 44.4492 20.2734 44.457V44.4805C20.1172 44.9102 19.8984 45.3008 19.6172 45.6523C19.3438 46.0039 18.9922 46.2773 18.5625 46.4727C17.8438 46.8086 17.0938 46.9766 16.3125 46.9766C16.0078 46.9766 15.7148 46.9219 15.4336 46.8125C15.1602 46.6953 14.8867 46.582 14.6133 46.4727C14.5977 46.4648 14.5664 46.4375 14.5195 46.3906C14.4961 46.3672 14.4727 46.3477 14.4492 46.332C14.4258 46.3164 14.3867 46.2852 14.332 46.2383C14.2852 46.1914 14.2305 46.1406 14.168 46.0859C14.1133 46.0234 14.0586 45.9688 14.0039 45.9219C13.957 45.875 13.9219 45.8438 13.8984 45.8281C13.8906 45.8125 13.8672 45.7773 13.8281 45.7227C13.7969 45.668 13.7617 45.6094 13.7227 45.5469C13.6836 45.4844 13.6484 45.4297 13.6172 45.3828C13.5859 45.3281 13.5664 45.293 13.5586 45.2773C13.5508 45.2695 13.5312 45.25 13.5 45.2188C13.4766 45.1797 13.4492 45.1406 13.418 45.1016C13.3867 45.0625 13.3555 45.0273 13.3242 44.9961C13.3008 44.957 13.2852 44.9297 13.2773 44.9141C13.2539 44.8906 13.2227 44.8555 13.1836 44.8086C13.1445 44.7539 13.1016 44.6992 13.0547 44.6445C13.0078 44.582 12.9648 44.5273 12.9258 44.4805C12.8867 44.4336 12.8555 44.4023 12.832 44.3867C12.8164 44.3711 12.7891 44.3438 12.75 44.3047C12.7109 44.2578 12.6836 44.2188 12.668 44.1875H12.6094C12.4844 44.1875 12.3672 44.2305 12.2578 44.3164C12.1484 44.4023 12.0469 44.5039 11.9531 44.6211C11.8594 44.7383 11.7734 44.8594 11.6953 44.9844C11.6172 45.1016 11.5508 45.1992 11.4961 45.2773C11.4961 45.293 11.4727 45.3203 11.4258 45.3594C11.3789 45.3984 11.3398 45.4258 11.3086 45.4414C11.1523 45.582 10.9922 45.7305 10.8281 45.8867C10.6641 46.043 10.4922 46.1914 10.3125 46.332C10.1406 46.4727 9.95703 46.6016 9.76172 46.7188C9.57422 46.8359 9.37891 46.9219 9.17578 46.9766C9.12891 46.9922 9.03906 47.0117 8.90625 47.0352C8.77344 47.0664 8.63281 47.0938 8.48438 47.1172C8.33594 47.1484 8.19141 47.1758 8.05078 47.1992C7.91016 47.2305 7.80859 47.25 7.74609 47.2578H7.27734C7.11328 47.2578 6.91016 47.2539 6.66797 47.2461C6.42578 47.2461 6.17578 47.2305 5.91797 47.1992C5.66797 47.1758 5.42188 47.1328 5.17969 47.0703C4.94531 47.0078 4.75 46.9219 4.59375 46.8125C4.59375 46.8125 4.57422 46.793 4.53516 46.7539C4.49609 46.7148 4.44922 46.6758 4.39453 46.6367C4.34766 46.5977 4.30078 46.5625 4.25391 46.5312C4.21484 46.4922 4.1875 46.4727 4.17188 46.4727C4.16406 46.4648 4.13672 46.4492 4.08984 46.4258C4.04297 46.4023 3.99219 46.3789 3.9375 46.3555C3.89062 46.332 3.84375 46.3125 3.79688 46.2969C3.75781 46.2812 3.73438 46.2734 3.72656 46.2734L3.62109 46.168C3.38672 45.8789 3.16406 45.582 2.95312 45.2773C2.75 44.9648 2.57422 44.6445 2.42578 44.3164C2.27734 43.9805 2.16016 43.6367 2.07422 43.2852C1.98828 42.9336 1.94531 42.5703 1.94531 42.1953ZM27.293 46.6367C27.293 46.5117 27.3242 46.4102 27.3867 46.332C27.457 46.2539 27.543 46.1953 27.6445 46.1562C27.7539 46.1172 27.8789 46.0898 28.0195 46.0742C28.1602 46.0586 28.3047 46.0508 28.4531 46.0508C28.5625 46.0508 28.668 46.0547 28.7695 46.0625C28.8789 46.0625 28.9883 46.0625 29.0977 46.0625C29.2617 46.0625 29.4102 46.0469 29.543 46.0156C29.6758 45.9766 29.7852 45.8906 29.8711 45.7578V45.1602C29.8711 45.0898 29.875 44.9688 29.8828 44.7969C29.8906 44.625 29.8984 44.4453 29.9062 44.2578C29.9219 44.0625 29.9336 43.8828 29.9414 43.7188C29.957 43.5469 29.9648 43.4258 29.9648 43.3555C29.9805 43.332 29.9961 43.293 30.0117 43.2383C30.0352 43.1836 30.0469 43.1484 30.0469 43.1328C30.0469 43.1172 30.043 43.0781 30.0352 43.0156C30.0273 42.9531 30.0195 42.918 30.0117 42.9102L29.9648 41.5859C29.9805 41.5312 29.9922 41.4609 30 41.375C30.0078 41.2812 30.0117 41.2109 30.0117 41.1641C30.0117 41.1016 30.0078 41.0547 30 41.0234C30 40.9922 29.9961 40.9648 29.9883 40.9414C29.9805 40.9102 29.9727 40.8789 29.9648 40.8477C29.9648 40.8086 29.9648 40.75 29.9648 40.6719V39.9102C29.9648 39.8789 29.957 39.793 29.9414 39.6523C29.9336 39.5117 29.9219 39.3633 29.9062 39.207C29.8984 39.043 29.8906 38.8906 29.8828 38.75C29.875 38.6016 29.8711 38.5078 29.8711 38.4688V36.8867C29.8711 36.8789 29.8633 36.8477 29.8477 36.793C29.8398 36.7383 29.8281 36.6797 29.8125 36.6172C29.8047 36.5547 29.793 36.5 29.7773 36.4531C29.7695 36.3984 29.7656 36.3672 29.7656 36.3594V36.1719V36.0078C29.7656 35.9844 29.7695 35.9453 29.7773 35.8906C29.793 35.8281 29.8047 35.7617 29.8125 35.6914C29.8281 35.6211 29.8398 35.5586 29.8477 35.5039C29.8633 35.4414 29.8711 35.4023 29.8711 35.3867V33.9688V32.5508C29.8555 32.2539 29.8008 32.0234 29.707 31.8594C29.6211 31.6953 29.4453 31.5742 29.1797 31.4961C29.1797 31.4805 29.1641 31.4727 29.1328 31.4727C29.1094 31.4727 29.0898 31.4727 29.0742 31.4727C28.9883 31.4727 28.9102 31.4883 28.8398 31.5195C28.7695 31.5508 28.6914 31.5664 28.6055 31.5664H28.4648C28.4102 31.5664 28.332 31.5625 28.2305 31.5547C28.1289 31.5469 28.0234 31.5391 27.9141 31.5312C27.8125 31.5234 27.7188 31.5156 27.6328 31.5078C27.5547 31.5 27.5078 31.4961 27.4922 31.4961C27.4062 31.457 27.332 31.3984 27.2695 31.3203C27.2148 31.2422 27.1875 31.1484 27.1875 31.0391C27.1875 31 27.1914 30.9531 27.1992 30.8984C27.2148 30.8359 27.2305 30.7852 27.2461 30.7461C27.2695 30.707 27.3047 30.6484 27.3516 30.5703C27.4062 30.4844 27.4531 30.4336 27.4922 30.418C27.5078 30.418 27.543 30.418 27.5977 30.418C27.6523 30.4102 27.707 30.4062 27.7617 30.4062C27.8242 30.4062 27.8828 30.4062 27.9375 30.4062C27.9922 30.3984 28.0273 30.3945 28.043 30.3945C28.2227 30.3945 28.3945 30.3984 28.5586 30.4062C28.7305 30.4141 28.9023 30.4453 29.0742 30.5H30.7383C31.7148 30.5 32.6953 30.4883 33.6797 30.4648C34.6641 30.4336 35.6562 30.418 36.6562 30.418H38.3789C38.4102 30.418 38.4961 30.4219 38.6367 30.4297C38.7852 30.4375 38.9414 30.4492 39.1055 30.4648C39.2695 30.4727 39.4219 30.4805 39.5625 30.4883C39.7031 30.4961 39.7891 30.5 39.8203 30.5H40.6875C40.7109 30.5 40.75 30.5039 40.8047 30.5117C40.8672 30.5195 40.9336 30.5312 41.0039 30.5469C41.0742 30.5547 41.1367 30.5664 41.1914 30.582C41.2539 30.5898 41.2969 30.6016 41.3203 30.6172C41.3672 30.625 41.4023 30.6523 41.4258 30.6992C41.457 30.7383 41.4766 30.7852 41.4844 30.8398C41.5 30.8945 41.5078 30.9531 41.5078 31.0156C41.5156 31.0703 41.5195 31.1133 41.5195 31.1445C41.5195 31.1836 41.5117 31.25 41.4961 31.3438C41.4883 31.4297 41.4844 31.4805 41.4844 31.4961C41.4844 31.543 41.4766 31.668 41.4609 31.8711C41.4453 32.0742 41.4258 32.2891 41.4023 32.5156C41.3867 32.7422 41.3711 32.957 41.3555 33.1602C41.3398 33.3555 41.3281 33.4766 41.3203 33.5234V34.3906C41.3203 34.4766 41.2891 34.5508 41.2266 34.6133C41.1719 34.668 41.1094 34.6953 41.0391 34.6953C40.9453 34.6953 40.8672 34.6602 40.8047 34.5898C40.75 34.5195 40.6992 34.4375 40.6523 34.3438C40.6055 34.25 40.5625 34.1523 40.5234 34.0508C40.4844 33.9492 40.4453 33.8672 40.4062 33.8047C40.4062 33.7891 40.3945 33.7734 40.3711 33.7578C40.3555 33.7422 40.3398 33.7266 40.3242 33.7109C40.293 33.6875 40.2656 33.6641 40.2422 33.6406C40.2344 33.6172 40.2188 33.582 40.1953 33.5352C40.1719 33.4883 40.1445 33.4414 40.1133 33.3945C40.0898 33.3477 40.0664 33.3047 40.043 33.2656C40.0195 33.2266 40 33.2031 39.9844 33.1953C39.8984 32.9922 39.793 32.7734 39.668 32.5391C39.543 32.3047 39.3906 32.125 39.2109 32C39.2031 32 39.1797 31.9961 39.1406 31.9883C39.1016 31.9805 39.0586 31.9766 39.0117 31.9766C38.9727 31.9688 38.9336 31.9609 38.8945 31.9531C38.8555 31.9453 38.832 31.9414 38.8242 31.9414C38.8242 31.9336 38.8008 31.918 38.7539 31.8945C38.7148 31.8633 38.668 31.832 38.6133 31.8008C38.5586 31.7695 38.5078 31.7422 38.4609 31.7188C38.4141 31.6875 38.3867 31.6641 38.3789 31.6484C38.3789 31.6406 38.3555 31.6289 38.3086 31.6133C38.2617 31.5977 38.2305 31.582 38.2148 31.5664C38.168 31.5664 38.0703 31.5586 37.9219 31.543C37.7812 31.5195 37.6289 31.5 37.4648 31.4844C37.3008 31.4609 37.1445 31.4414 36.9961 31.4258C36.8555 31.4023 36.7578 31.3828 36.7031 31.3672C36.6797 31.3672 36.625 31.3594 36.5391 31.3438C36.4609 31.3203 36.4062 31.3008 36.375 31.2852C36.125 31.2773 35.875 31.2695 35.625 31.2617C35.375 31.2539 35.125 31.25 34.875 31.25C34.625 31.25 34.3789 31.2539 34.1367 31.2617C33.9023 31.2695 33.6602 31.2773 33.4102 31.2852C33.3555 31.3008 33.3008 31.3242 33.2461 31.3555C33.1992 31.3789 33.1523 31.4062 33.1055 31.4375C33.0586 31.4609 33.0195 31.4805 32.9883 31.4961C32.8711 31.543 32.7695 31.625 32.6836 31.7422C32.6055 31.8516 32.5391 31.9727 32.4844 32.1055C32.4375 32.2383 32.4023 32.3789 32.3789 32.5273C32.3633 32.668 32.3555 32.7969 32.3555 32.9141V32.9609C32.3555 32.9844 32.3633 32.9961 32.3789 32.9961C32.3789 33.0039 32.3828 33.0352 32.3906 33.0898C32.3984 33.1367 32.4062 33.1914 32.4141 33.2539C32.4297 33.3164 32.4414 33.375 32.4492 33.4297C32.457 33.4844 32.4609 33.5156 32.4609 33.5234C32.4688 33.6016 32.4727 33.7383 32.4727 33.9336C32.4805 34.1211 32.4844 34.3242 32.4844 34.543C32.4922 34.7617 32.4961 34.9688 32.4961 35.1641C32.5039 35.3516 32.5078 35.4844 32.5078 35.5625L32.5195 35.832V37.8594L32.625 38.1172C32.6328 38.1172 32.6641 38.1211 32.7188 38.1289C32.7734 38.1367 32.8359 38.1484 32.9062 38.1641C32.9844 38.1719 33.0586 38.1797 33.1289 38.1875C33.207 38.1953 33.2695 38.1992 33.3164 38.1992H33.5156C33.9219 38.1992 34.3359 38.1719 34.7578 38.1172C35.1797 38.0625 35.5898 38.0078 35.9883 37.9531C36.2539 37.9062 36.5 37.8477 36.7266 37.7773C36.9531 37.707 37.1719 37.6133 37.3828 37.4961C37.4531 37.3945 37.5117 37.25 37.5586 37.0625C37.6133 36.875 37.6602 36.6719 37.6992 36.4531C37.7383 36.2344 37.7734 36.0117 37.8047 35.7852C37.8438 35.5586 37.8828 35.3555 37.9219 35.1758C37.9609 34.9883 38.0039 34.832 38.0508 34.707C38.0977 34.582 38.1523 34.5117 38.2148 34.4961H38.4609C38.5859 34.4961 38.6836 34.5234 38.7539 34.5781C38.8242 34.625 38.8789 34.6914 38.918 34.7773C38.957 34.8633 38.9805 34.9609 38.9883 35.0703C39.0039 35.1719 39.0117 35.2773 39.0117 35.3867C39.0117 35.4023 39.0078 35.4375 39 35.4922C38.9922 35.5391 38.9805 35.5938 38.9648 35.6562C38.957 35.7188 38.9492 35.7773 38.9414 35.832C38.9336 35.8789 38.9297 35.9102 38.9297 35.9258V37.4258C38.9297 37.4414 38.9258 37.4844 38.918 37.5547C38.9102 37.625 38.8984 37.6992 38.8828 37.7773C38.875 37.8555 38.8633 37.9297 38.8477 38C38.8398 38.0625 38.832 38.1016 38.8242 38.1172V39.1953V40.2734C38.832 40.2969 38.8398 40.3438 38.8477 40.4141C38.8555 40.4766 38.8633 40.5469 38.8711 40.625C38.8789 40.7031 38.8867 40.7773 38.8945 40.8477C38.9023 40.918 38.9141 40.9688 38.9297 41C38.9375 41.0156 38.9492 41.0352 38.9648 41.0586C38.9727 41.0977 38.9883 41.125 39.0117 41.1406V41.1758V41.2227C39.0039 41.2383 38.9961 41.2695 38.9883 41.3164C38.9805 41.3555 38.9727 41.4023 38.9648 41.457C38.957 41.5039 38.9492 41.5508 38.9414 41.5977C38.9336 41.6367 38.9297 41.668 38.9297 41.6914C38.9141 41.7695 38.9062 41.8555 38.9062 41.9492C38.9062 42.0352 38.8945 42.1172 38.8711 42.1953C38.8477 42.2734 38.8047 42.3398 38.7422 42.3945C38.6875 42.4492 38.6016 42.4766 38.4844 42.4766C38.3203 42.4766 38.1992 42.4219 38.1211 42.3125C38.0508 42.1953 38.0039 42.0625 37.9805 41.9141C37.957 41.7578 37.9453 41.6016 37.9453 41.4453C37.9531 41.2891 37.9492 41.168 37.9336 41.082C37.9336 41.082 37.9258 41.0664 37.9102 41.0352C37.9023 41.0273 37.8984 41.0156 37.8984 41C37.8359 40.8672 37.793 40.7227 37.7695 40.5664C37.7461 40.4023 37.6914 40.2695 37.6055 40.168C37.5898 40.1367 37.5586 40.0977 37.5117 40.0508C37.4648 40.0039 37.4141 39.957 37.3594 39.9102C37.3125 39.8633 37.2695 39.8242 37.2305 39.793C37.1914 39.7539 37.168 39.7305 37.1602 39.7227C37.1367 39.707 37.082 39.6875 36.9961 39.6641C36.9102 39.6406 36.8164 39.6133 36.7148 39.582C36.6211 39.5508 36.5234 39.5234 36.4219 39.5C36.3281 39.4766 36.2578 39.457 36.2109 39.4414C36.1641 39.4414 36.0586 39.4375 35.8945 39.4297C35.7383 39.4141 35.5625 39.3984 35.3672 39.3828C35.1797 39.3594 34.9922 39.3398 34.8047 39.3242C34.6172 39.3086 34.4766 39.3008 34.3828 39.3008H33.7852C33.7617 39.3008 33.7148 39.2891 33.6445 39.2656C33.5742 39.2344 33.5312 39.2109 33.5156 39.1953H33.457H33.4102C33.4023 39.2109 33.375 39.2344 33.3281 39.2656C33.2891 39.2891 33.2656 39.3008 33.2578 39.3008C33.2266 39.3086 33.1719 39.3242 33.0938 39.3477C33.0156 39.3711 32.9336 39.3984 32.8477 39.4297C32.7695 39.4531 32.6914 39.4766 32.6133 39.5C32.543 39.5234 32.4922 39.543 32.4609 39.5586V40.0039V40.4492C32.4609 40.4648 32.4766 40.5078 32.5078 40.5781C32.5469 40.6484 32.5664 40.6953 32.5664 40.7188V41.6914C32.5664 41.6992 32.5742 41.7539 32.5898 41.8555C32.6133 41.9492 32.625 42 32.625 42.0078C32.625 42.0234 32.6133 42.0586 32.5898 42.1133C32.5742 42.168 32.5664 42.2031 32.5664 42.2188C32.543 42.25 32.5195 42.2969 32.4961 42.3594C32.4727 42.4219 32.4609 42.4609 32.4609 42.4766V45.6055C32.4609 45.6445 32.4805 45.707 32.5195 45.793C32.5664 45.8789 32.6016 45.9297 32.625 45.9453C32.6328 45.9531 32.6602 45.9609 32.707 45.9688C32.7539 45.9766 32.8047 45.9883 32.8594 46.0039C32.9219 46.0117 32.9805 46.0195 33.0352 46.0273C33.0977 46.0352 33.1445 46.043 33.1758 46.0508H34.0195C34.0977 46.0508 34.1875 46.0664 34.2891 46.0977C34.3984 46.1211 34.5 46.1562 34.5938 46.2031C34.6875 46.25 34.7656 46.3086 34.8281 46.3789C34.8984 46.4414 34.9336 46.5195 34.9336 46.6133C34.9336 46.7539 34.8633 46.8672 34.7227 46.9531C34.5898 47.0391 34.4531 47.082 34.3125 47.082H31.5117C31.4883 47.082 31.4531 47.0781 31.4062 47.0703C31.3594 47.0625 31.3047 47.0547 31.2422 47.0469C31.1875 47.0391 31.1289 47.0312 31.0664 47.0234C31.0117 47.0156 30.9688 47.0078 30.9375 47L30.8672 46.9531C30.8516 46.9375 30.832 46.9258 30.8086 46.918C30.793 46.9023 30.7812 46.8945 30.7734 46.8945H30.7383H30.7031C30.2734 47.0039 29.8555 47.0742 29.4492 47.1055C29.043 47.1445 28.6289 47.1641 28.207 47.1641H27.6797C27.5469 47.1484 27.4492 47.0859 27.3867 46.9766C27.3242 46.8594 27.293 46.7461 27.293 46.6367ZM43.8164 37.7188C43.793 37.5703 43.7617 37.4531 43.7227 37.3672C43.6836 37.2734 43.6328 37.1992 43.5703 37.1445C43.5078 37.082 43.4297 37.0273 43.3359 36.9805C43.2422 36.9336 43.125 36.875 42.9844 36.8047C42.8984 36.7656 42.8086 36.7383 42.7148 36.7227C42.6289 36.6992 42.5742 36.6797 42.5508 36.6641C42.5039 36.6094 42.4688 36.5352 42.4453 36.4414C42.4219 36.3398 42.4102 36.2656 42.4102 36.2188C42.4102 36.2031 42.4102 36.1719 42.4102 36.125C42.418 36.0703 42.4375 36.0312 42.4688 36.0078C42.4844 36 42.5273 35.9883 42.5977 35.9727C42.668 35.957 42.7227 35.9414 42.7617 35.9258C42.8398 35.918 42.9258 35.9102 43.0195 35.9023C43.1211 35.8945 43.2148 35.8906 43.3008 35.8906C43.4336 35.8906 43.5703 35.9023 43.7109 35.9258C43.8516 35.9414 44.0352 35.9688 44.2617 36.0078H44.707C44.8555 36.0078 44.9961 36.0078 45.1289 36.0078C45.2617 36.0078 45.3906 36.0039 45.5156 35.9961C45.6406 35.9883 45.7656 35.9805 45.8906 35.9727C46.0156 35.9648 46.1523 35.9492 46.3008 35.9258C46.3242 35.9258 46.3711 35.9141 46.4414 35.8906C46.5117 35.8672 46.5547 35.8555 46.5703 35.8555H46.6523C46.832 35.8555 46.9961 35.8867 47.1445 35.9492C47.3008 36.0117 47.3789 36.1406 47.3789 36.3359C47.3789 36.4688 47.332 36.5703 47.2383 36.6406C47.1445 36.7109 47.0312 36.7734 46.8984 36.8281C46.7734 36.8828 46.6445 36.9375 46.5117 36.9922C46.3867 37.0391 46.2891 37.1055 46.2188 37.1914C46.1406 37.2773 46.0781 37.3828 46.0312 37.5078C45.9844 37.625 45.9453 37.7539 45.9141 37.8945C45.8906 38.0273 45.875 38.1602 45.8672 38.293C45.8594 38.4258 45.8555 38.543 45.8555 38.6445C45.8555 38.7695 45.8711 38.8711 45.9023 38.9492C45.9414 39.0273 45.9609 39.1211 45.9609 39.2305C45.9609 39.2539 45.957 39.2891 45.9492 39.3359C45.9492 39.375 45.9375 39.4023 45.9141 39.418C45.9141 39.4336 45.9102 39.4766 45.9023 39.5469C45.8945 39.6172 45.8867 39.6953 45.8789 39.7812C45.8789 39.8594 45.875 39.9336 45.8672 40.0039C45.8594 40.0742 45.8555 40.1211 45.8555 40.1445V41.1758C45.8555 41.2148 45.8398 41.2812 45.8086 41.375C45.7852 41.4688 45.7695 41.5312 45.7617 41.5625V41.6914V41.8086C45.7617 41.8242 45.7656 41.8633 45.7734 41.9258C45.7891 41.9883 45.8008 42.0547 45.8086 42.125C45.8242 42.1953 45.8359 42.2617 45.8438 42.3242C45.8516 42.3867 45.8555 42.4258 45.8555 42.4414C45.8633 42.4805 45.8672 42.5508 45.8672 42.6523C45.875 42.7461 45.8828 42.8477 45.8906 42.957C45.8984 43.0586 45.9023 43.1562 45.9023 43.25C45.9102 43.3438 45.9141 43.4102 45.9141 43.4492C45.9219 43.5117 45.9375 43.5938 45.9609 43.6953C45.9844 43.7891 46.0078 43.8867 46.0312 43.9883C46.0625 44.0898 46.0938 44.1875 46.125 44.2812C46.1562 44.375 46.1875 44.4492 46.2188 44.5039C46.25 44.582 46.3047 44.6797 46.3828 44.7969C46.4688 44.9141 46.5625 45.0312 46.6641 45.1484C46.7656 45.2578 46.8672 45.3555 46.9688 45.4414C47.0781 45.5273 47.1797 45.582 47.2734 45.6055C47.2891 45.6055 47.3242 45.6211 47.3789 45.6523C47.4336 45.6758 47.4805 45.6875 47.5195 45.6875C47.5742 45.6875 47.6016 45.6914 47.6016 45.6992C47.6875 45.707 47.7656 45.7266 47.8359 45.7578C47.9062 45.7812 47.9727 45.8086 48.0352 45.8398C48.0977 45.8633 48.1641 45.8867 48.2344 45.9102C48.3047 45.9336 48.3828 45.9453 48.4688 45.9453H48.6328C48.6406 45.9375 48.668 45.9219 48.7148 45.8984C48.7617 45.875 48.8086 45.8516 48.8555 45.8281C48.9102 45.8047 48.957 45.7852 48.9961 45.7695C49.043 45.7539 49.0703 45.7461 49.0781 45.7461H49.2656C49.3438 45.7227 49.4258 45.6992 49.5117 45.6758C49.5742 45.6602 49.6406 45.6484 49.7109 45.6406C49.7812 45.625 49.8359 45.6133 49.875 45.6055C50.0859 45.5352 50.2734 45.4062 50.4375 45.2188C50.6094 45.0234 50.7461 44.8477 50.8477 44.6914C50.8555 44.6758 50.8672 44.6406 50.8828 44.5859C50.9062 44.5312 50.9258 44.4766 50.9414 44.4219C50.9648 44.3594 50.9844 44.3008 51 44.2461C51.0156 44.1914 51.0234 44.1562 51.0234 44.1406C51.1172 43.8984 51.1875 43.6445 51.2344 43.3789C51.2812 43.1133 51.3125 42.8438 51.3281 42.5703C51.3438 42.2891 51.3555 42.0117 51.3633 41.7383C51.3711 41.4648 51.3867 41.1992 51.4102 40.9414C51.4102 40.9336 51.4141 40.9102 51.4219 40.8711C51.4297 40.8242 51.4336 40.7773 51.4336 40.7305C51.4414 40.6758 51.4492 40.6289 51.457 40.5898C51.4648 40.543 51.4688 40.5117 51.4688 40.4961V40.0039V39.4766C51.4609 39.4141 51.4492 39.3008 51.4336 39.1367C51.418 38.9727 51.3984 38.7969 51.375 38.6094C51.3594 38.4219 51.3438 38.2461 51.3281 38.082C51.3203 37.9102 51.3164 37.7891 51.3164 37.7188C51.3008 37.6797 51.2695 37.6055 51.2227 37.4961C51.1758 37.3789 51.1367 37.3047 51.1055 37.2734C51.0977 37.2344 51.0859 37.1953 51.0703 37.1562C51.0547 37.1094 51.0391 37.0859 51.0234 37.0859C50.9688 37.0312 50.918 37.0039 50.8711 37.0039C50.832 37.0039 50.7969 37.0078 50.7656 37.0156C50.7422 37.0234 50.7148 37.0273 50.6836 37.0273C50.6445 37.0273 50.6094 37.0195 50.5781 37.0039C50.3828 36.9648 50.2031 36.918 50.0391 36.8633C49.8828 36.8086 49.7383 36.6953 49.6055 36.5234C49.5898 36.4844 49.5781 36.457 49.5703 36.4414C49.5703 36.4258 49.5703 36.3906 49.5703 36.3359C49.5703 36.3203 49.5742 36.3047 49.582 36.2891C49.5898 36.2656 49.5977 36.2461 49.6055 36.2305C49.7305 36.0742 49.8828 35.9805 50.0625 35.9492C50.2422 35.9102 50.4297 35.8906 50.625 35.8906C50.7656 35.8906 50.9062 35.8984 51.0469 35.9141C51.1875 35.9219 51.3242 35.9258 51.457 35.9258C51.5195 35.9258 51.6094 35.9141 51.7266 35.8906C51.8516 35.8672 51.957 35.8555 52.043 35.8555H52.7695C52.8398 35.8555 52.9219 35.8516 53.0156 35.8438C53.1172 35.8359 53.2188 35.832 53.3203 35.832C53.4766 35.832 53.6289 35.8438 53.7773 35.8672C53.9258 35.8906 54.0508 35.9375 54.1523 36.0078C54.168 36.0312 54.1758 36.0742 54.1758 36.1367C54.1836 36.1992 54.1875 36.2383 54.1875 36.2539C54.1875 36.4102 54.1484 36.5312 54.0703 36.6172C54 36.6953 53.9062 36.7578 53.7891 36.8047C53.6797 36.8438 53.5586 36.875 53.4258 36.8984C53.3008 36.9219 53.1836 36.957 53.0742 37.0039C52.9492 37.0586 52.8477 37.1445 52.7695 37.2617C52.6914 37.3789 52.6523 37.5078 52.6523 37.6484C52.6523 37.7734 52.6641 37.8828 52.6875 37.9766C52.7188 38.0703 52.7344 38.1797 52.7344 38.3047V38.5039C52.7344 38.5273 52.7188 38.5781 52.6875 38.6562C52.6641 38.7344 52.6523 38.7773 52.6523 38.7852V39.0781V39.7578C52.6445 39.8438 52.6367 39.9922 52.6289 40.2031C52.6211 40.4141 52.6094 40.6406 52.5938 40.8828C52.5859 41.1172 52.5781 41.3398 52.5703 41.5508C52.5625 41.7617 52.5547 41.9102 52.5469 41.9961C52.5078 42.0742 52.4805 42.1523 52.4648 42.2305C52.4492 42.3008 52.4375 42.375 52.4297 42.4531C52.4219 42.5234 52.4141 42.5938 52.4062 42.6641C52.4062 42.7344 52.3945 42.8086 52.3711 42.8867C52.3633 42.9102 52.3516 42.9531 52.3359 43.0156C52.3203 43.0703 52.3008 43.1328 52.2773 43.2031C52.2617 43.2734 52.2461 43.3398 52.2305 43.4023C52.2148 43.457 52.207 43.4922 52.207 43.5078C52.1914 43.5234 52.1797 43.5625 52.1719 43.625C52.1641 43.6797 52.1562 43.7383 52.1484 43.8008C52.1484 43.8555 52.1406 43.9102 52.125 43.9648C52.1172 44.0117 52.1094 44.0352 52.1016 44.0352C52.1016 44.0586 52.0742 44.1133 52.0195 44.1992C51.9648 44.2773 51.9336 44.3242 51.9258 44.3398C51.9102 44.3555 51.8828 44.4062 51.8438 44.4922C51.8047 44.5781 51.7578 44.6719 51.7031 44.7734C51.6562 44.875 51.6094 44.9688 51.5625 45.0547C51.5156 45.1406 51.4844 45.1953 51.4688 45.2188C51.3281 45.4844 51.1445 45.7227 50.918 45.9336C50.6992 46.1445 50.4648 46.3594 50.2148 46.5781C50.1836 46.6016 50.1367 46.6367 50.0742 46.6836C50.0117 46.7227 49.9453 46.7656 49.875 46.8125C49.8125 46.8594 49.7539 46.9023 49.6992 46.9414C49.6445 46.9727 49.6133 46.9922 49.6055 47H49.2656C49.1172 47.0156 48.9844 47.0312 48.8672 47.0469C48.7578 47.0703 48.6484 47.0898 48.5391 47.1055C48.4297 47.1289 48.3164 47.1484 48.1992 47.1641C48.082 47.1797 47.9492 47.1875 47.8008 47.1875H47.0977C47.0117 47.1484 46.9219 47.1211 46.8281 47.1055C46.7344 47.0898 46.6406 47.0742 46.5469 47.0586C46.4609 47.0508 46.375 47.0352 46.2891 47.0117C46.2031 46.9961 46.1211 46.9648 46.043 46.918C46.0195 46.9102 45.9688 46.8828 45.8906 46.8359C45.8125 46.7812 45.7227 46.7188 45.6211 46.6484C45.5273 46.5781 45.4336 46.5117 45.3398 46.4492C45.2461 46.3789 45.1758 46.3203 45.1289 46.2734L45.0469 46.2148C44.9844 46.1133 44.918 46.0273 44.8477 45.957C44.7773 45.8789 44.707 45.8047 44.6367 45.7344C44.5664 45.6641 44.4961 45.5898 44.4258 45.5117C44.3633 45.4258 44.3086 45.3281 44.2617 45.2188C44.0977 44.8438 43.9805 44.4414 43.9102 44.0117C43.8477 43.5742 43.8164 43.1445 43.8164 42.7227C43.8086 42.6289 43.8008 42.5 43.793 42.3359C43.793 42.1641 43.793 41.9688 43.793 41.75C43.793 41.5234 43.793 41.2812 43.793 41.0234C43.793 40.7656 43.793 40.5 43.793 40.2266C43.793 39.9609 43.793 39.6992 43.793 39.4414C43.793 39.1836 43.793 38.9453 43.793 38.7266C43.793 38.5 43.793 38.3008 43.793 38.1289C43.8008 37.9492 43.8086 37.8125 43.8164 37.7188ZM60.6445 46.6719V46.7188C60.5352 46.8594 60.4297 46.957 60.3281 47.0117C60.2266 47.0742 60.0859 47.1055 59.9062 47.1055C59.8984 47.1055 59.8828 47.0977 59.8594 47.082C59.8438 47.0664 59.8281 47.0586 59.8125 47.0586C59.7891 47.0586 59.7305 47.0508 59.6367 47.0352C59.5508 47.0273 59.4922 47.0156 59.4609 47C59 47.0156 58.5625 47.0273 58.1484 47.0352C57.7422 47.0508 57.3164 47.0586 56.8711 47.0586C56.8086 47.0586 56.7422 47.0625 56.6719 47.0703C56.6016 47.0781 56.5234 47.082 56.4375 47.082C56.2656 47.082 56.1133 47.0625 55.9805 47.0234C55.8867 47 55.7891 46.9648 55.6875 46.918C55.5938 46.8633 55.5469 46.7812 55.5469 46.6719C55.5469 46.6094 55.5508 46.5508 55.5586 46.4961C55.5742 46.4414 55.6172 46.3867 55.6875 46.332C55.7656 46.3008 55.8711 46.2656 56.0039 46.2266C56.1445 46.1797 56.25 46.1484 56.3203 46.1328C56.3438 46.125 56.3828 46.1133 56.4375 46.0977C56.4922 46.082 56.5469 46.0664 56.6016 46.0508C56.6641 46.0352 56.7188 46.0195 56.7656 46.0039C56.8125 45.9883 56.8477 45.9766 56.8711 45.9688C56.9336 45.9297 57 45.8789 57.0703 45.8164C57.1406 45.7461 57.1953 45.668 57.2344 45.582C57.2969 45.4727 57.3398 45.3516 57.3633 45.2188C57.3867 45.0859 57.3984 44.9492 57.3984 44.8086C57.3984 44.7227 57.4023 44.6406 57.4102 44.5625C57.418 44.4766 57.4219 44.3906 57.4219 44.3047C57.4219 44.2188 57.4219 44.1406 57.4219 44.0703C57.4297 44 57.4414 43.9297 57.457 43.8594C57.457 43.8359 57.4648 43.7852 57.4805 43.707C57.5039 43.6289 57.5273 43.5469 57.5508 43.4609C57.582 43.3672 57.6094 43.2812 57.6328 43.2031C57.6562 43.125 57.6719 43.0781 57.6797 43.0625V43.0273V42.8633C57.6875 42.8555 57.6953 42.832 57.7031 42.793C57.7109 42.7539 57.7188 42.7109 57.7266 42.6641C57.7422 42.6094 57.7539 42.5586 57.7617 42.5117C57.7773 42.4648 57.7891 42.4336 57.7969 42.418C57.7969 42.4023 57.7891 42.3516 57.7734 42.2656C57.7656 42.1719 57.7617 42.1094 57.7617 42.0781V41.9492C57.7617 41.4102 57.793 40.8672 57.8555 40.3203C57.9258 39.7656 57.9609 39.207 57.9609 38.6445V38.2461C57.9609 38.2227 57.957 38.1914 57.9492 38.1523C57.9414 38.1133 57.9297 38.0742 57.9141 38.0352L57.8672 37.8945L56.7891 36.8047C56.7344 36.7578 56.6562 36.7188 56.5547 36.6875C56.4531 36.6562 56.3516 36.6211 56.25 36.582C56.1484 36.543 56.0586 36.4961 55.9805 36.4414C55.9102 36.3867 55.875 36.3047 55.875 36.1953C55.875 36.0859 55.9141 36.0117 55.9922 35.9727C56.0703 35.9336 56.1602 35.9141 56.2617 35.9141H58.2891C58.4609 35.9141 58.625 35.9688 58.7812 36.0781C58.9375 36.1797 59.082 36.3047 59.2148 36.4531C59.3477 36.6016 59.4727 36.7578 59.5898 36.9219C59.707 37.0859 59.8125 37.2227 59.9062 37.332C59.9219 37.3555 59.9609 37.4062 60.0234 37.4844C60.0859 37.5547 60.1523 37.6328 60.2227 37.7188C60.3008 37.7969 60.3672 37.8711 60.4219 37.9414C60.4844 38.0039 60.5234 38.043 60.5391 38.0586C60.5547 38.0742 60.5859 38.1172 60.6328 38.1875C60.6875 38.2578 60.7422 38.3359 60.7969 38.4219C60.8594 38.5 60.9141 38.5781 60.9609 38.6562C61.0156 38.7266 61.0508 38.7656 61.0664 38.7734C61.0742 38.7734 61.0898 38.7891 61.1133 38.8203C61.1445 38.8438 61.1758 38.8711 61.207 38.9023C61.2383 38.9258 61.2656 38.9531 61.2891 38.9844C61.3203 39.0078 61.3398 39.0234 61.3477 39.0312C61.4023 39.1172 61.4414 39.1992 61.4648 39.2773C61.4961 39.3555 61.5273 39.4258 61.5586 39.4883C61.5898 39.543 61.6289 39.5938 61.6758 39.6406C61.7305 39.6875 61.8047 39.7266 61.8984 39.7578C62.3906 40.2188 62.8594 40.7031 63.3047 41.2109C63.75 41.7109 64.2266 42.1758 64.7344 42.6055C64.8281 42.543 64.8984 42.4727 64.9453 42.3945C64.9922 42.3086 65.0312 42.2188 65.0625 42.125C65.0938 42.0312 65.1172 41.9336 65.1328 41.832C65.1562 41.7305 65.1797 41.6289 65.2031 41.5273C65.2656 41.2305 65.3203 40.9453 65.3672 40.6719C65.4219 40.3984 65.4492 40.0938 65.4492 39.7578C65.4492 39.6406 65.4453 39.4844 65.4375 39.2891C65.4375 39.0859 65.4297 38.8789 65.4141 38.668C65.3984 38.4492 65.375 38.2422 65.3438 38.0469C65.3125 37.8516 65.2656 37.707 65.2031 37.6133C65.1797 37.5898 65.1484 37.5547 65.1094 37.5078C65.0781 37.4609 65.043 37.4141 65.0039 37.3672C64.9727 37.3203 64.9414 37.2773 64.9102 37.2383C64.8789 37.1992 64.8555 37.1758 64.8398 37.168C64.7773 37.0977 64.6406 37.0352 64.4297 36.9805C64.2266 36.918 64.0117 36.8516 63.7852 36.7812C63.5664 36.7109 63.3672 36.6367 63.1875 36.5586C63.0156 36.4805 62.9297 36.3867 62.9297 36.2773C62.9297 36.2539 62.9297 36.2266 62.9297 36.1953C62.9297 36.1641 62.9375 36.1445 62.9531 36.1367C62.9844 36.0273 63.0312 35.9492 63.0938 35.9023C63.1641 35.8555 63.2656 35.832 63.3984 35.832H63.6562C63.9766 35.832 64.2891 35.8242 64.5938 35.8086C64.8984 35.793 65.2031 35.7852 65.5078 35.7852C65.6406 35.7852 65.7617 35.793 65.8711 35.8086C65.9805 35.8242 66.0938 35.832 66.2109 35.832C66.4453 35.832 66.6797 35.8164 66.9141 35.7852C67.1484 35.7461 67.3828 35.7266 67.6172 35.7266C67.7734 35.7266 67.9023 35.7656 68.0039 35.8438C68.1055 35.9141 68.1562 36.0312 68.1562 36.1953C68.1562 36.2656 68.125 36.3281 68.0625 36.3828C68.0078 36.4297 67.9414 36.4727 67.8633 36.5117C67.7852 36.543 67.7031 36.5703 67.6172 36.5938C67.5391 36.6094 67.4766 36.6172 67.4297 36.6172C67.3906 36.6328 67.3242 36.6523 67.2305 36.6758C67.1367 36.6914 67.0352 36.7109 66.9258 36.7344C66.8242 36.75 66.7227 36.7656 66.6211 36.7812C66.5273 36.7969 66.4648 36.8047 66.4336 36.8047C66.293 36.9297 66.207 37.0625 66.1758 37.2031C66.1523 37.3359 66.125 37.4922 66.0938 37.6719C66.0938 37.6875 66.0898 37.7148 66.082 37.7539C66.0742 37.793 66.0625 37.8359 66.0469 37.8828C66.0391 37.9219 66.0273 37.9609 66.0117 38C66.0039 38.0312 65.9922 38.0508 65.9766 38.0586V38.082V38.1406C65.9844 38.1953 65.9922 38.3047 66 38.4688C66.0156 38.625 66.0273 38.8125 66.0352 39.0312C66.043 39.2422 66.0508 39.4688 66.0586 39.7109C66.0664 39.9531 66.0703 40.1836 66.0703 40.4023C66.0781 40.6133 66.082 40.8008 66.082 40.9648C66.0898 41.1211 66.0938 41.2266 66.0938 41.2812V41.4102C66.0938 41.7383 66.0625 42.0547 66 42.3594C65.9375 42.6641 65.9062 42.9805 65.9062 43.3086C65.9062 43.8398 65.9414 44.3672 66.0117 44.8906C66.0898 45.4062 66.1289 45.9336 66.1289 46.4727C66.1289 46.4961 66.125 46.5352 66.1172 46.5898C66.1172 46.6367 66.1133 46.6914 66.1055 46.7539C66.1055 46.8086 66.1016 46.8594 66.0938 46.9062C66.0938 46.9531 66.0938 46.9844 66.0938 47C66.0234 47.0547 65.9531 47.0859 65.8828 47.0938C65.8203 47.1016 65.7539 47.1055 65.6836 47.1055C65.5977 47.1055 65.5156 47.1016 65.4375 47.0938C65.3672 47.0859 65.2891 47.0547 65.2031 47C65.1172 46.9531 65.0352 46.8828 64.957 46.7891C64.8867 46.6953 64.8203 46.5977 64.7578 46.4961C64.7031 46.3867 64.6523 46.2812 64.6055 46.1797C64.5586 46.0781 64.5156 46 64.4766 45.9453C64.3203 45.6797 64.1172 45.4414 63.8672 45.2305C63.625 45.0117 63.4062 44.7891 63.2109 44.5625C63.1953 44.5391 63.1836 44.5156 63.1758 44.4922C63.1602 44.4453 63.1523 44.418 63.1523 44.4102C63.1289 44.3867 63.082 44.3398 63.0117 44.2695C62.9492 44.1992 62.8828 44.125 62.8125 44.0469C62.7422 43.9609 62.6758 43.8828 62.6133 43.8125C62.5508 43.7422 62.5156 43.6953 62.5078 43.6719C62.5 43.6719 62.4883 43.6562 62.4727 43.625C62.457 43.5859 62.4375 43.5469 62.4141 43.5078C62.3984 43.4609 62.3828 43.4219 62.3672 43.3906C62.3516 43.3516 62.3438 43.3242 62.3438 43.3086C62.2188 43.1523 62.0859 43 61.9453 42.8516C61.8125 42.6953 61.668 42.5508 61.5117 42.418C61.5039 42.4102 61.4805 42.3984 61.4414 42.3828C61.4102 42.3594 61.375 42.3359 61.3359 42.3125C61.2969 42.2812 61.2578 42.2539 61.2188 42.2305C61.1875 42.1992 61.1719 42.1758 61.1719 42.1602C61.0391 42.0664 60.918 41.957 60.8086 41.832C60.707 41.707 60.6055 41.5781 60.5039 41.4453C60.4102 41.3125 60.3125 41.1797 60.2109 41.0469C60.1172 40.9062 60.0156 40.7773 59.9062 40.6602C59.875 40.6211 59.8164 40.5586 59.7305 40.4727C59.6523 40.3867 59.5664 40.2969 59.4727 40.2031C59.3789 40.1094 59.2852 40.0195 59.1914 39.9336C59.1055 39.8477 59.0469 39.7891 59.0156 39.7578C59.0156 39.7344 59 39.7227 58.9688 39.7227H58.9336C58.832 39.7227 58.7695 39.7305 58.7461 39.7461C58.7305 39.7617 58.6914 39.8164 58.6289 39.9102C58.6133 39.957 58.5977 40 58.582 40.0391C58.5742 40.0781 58.5625 40.1328 58.5469 40.2031C58.5391 40.2656 58.5195 40.3789 58.4883 40.543C58.4648 40.6992 58.4336 40.832 58.3945 40.9414V40.9766C58.3945 41.0156 58.3945 41.0742 58.3945 41.1523C58.4023 41.2227 58.4062 41.293 58.4062 41.3633C58.4062 41.5742 58.3945 41.793 58.3711 42.0195C58.3555 42.2383 58.3477 42.4609 58.3477 42.6875V42.8047C58.3633 42.8203 58.375 42.8672 58.3828 42.9453C58.3984 43.0156 58.4062 43.0547 58.4062 43.0625V44.1172C58.4141 44.1797 58.4258 44.2812 58.4414 44.4219C58.457 44.5625 58.4727 44.7109 58.4883 44.8672C58.5039 45.0156 58.5156 45.1602 58.5234 45.3008C58.5391 45.4336 58.5469 45.5273 58.5469 45.582C58.6406 45.707 58.7695 45.8164 58.9336 45.9102C59.0977 46.0039 59.2461 46.0703 59.3789 46.1094H59.7422C59.8047 46.1172 59.8867 46.1328 59.9883 46.1562C60.0898 46.1797 60.1875 46.2148 60.2812 46.2617C60.3828 46.3008 60.4688 46.3555 60.5391 46.4258C60.6094 46.4961 60.6445 46.5781 60.6445 46.6719ZM74.9648 46.6367C74.9648 46.5117 74.9961 46.4102 75.0586 46.332C75.1289 46.2539 75.2148 46.1953 75.3164 46.1562C75.4258 46.1172 75.5508 46.0898 75.6914 46.0742C75.832 46.0586 75.9766 46.0508 76.125 46.0508C76.2344 46.0508 76.3398 46.0547 76.4414 46.0625C76.5508 46.0625 76.6602 46.0625 76.7695 46.0625C76.9336 46.0625 77.082 46.0469 77.2148 46.0156C77.3477 45.9766 77.457 45.8906 77.543 45.7578V45.1602C77.543 45.0898 77.5469 44.9688 77.5547 44.7969C77.5625 44.625 77.5703 44.4453 77.5781 44.2578C77.5938 44.0625 77.6055 43.8828 77.6133 43.7188C77.6289 43.5469 77.6367 43.4258 77.6367 43.3555C77.6523 43.332 77.668 43.293 77.6836 43.2383C77.707 43.1836 77.7188 43.1484 77.7188 43.1328C77.7188 43.1172 77.7148 43.0781 77.707 43.0156C77.6992 42.9531 77.6914 42.918 77.6836 42.9102L77.6367 41.5859C77.6523 41.5312 77.6641 41.4609 77.6719 41.375C77.6797 41.2812 77.6836 41.2109 77.6836 41.1641C77.6836 41.1016 77.6797 41.0547 77.6719 41.0234C77.6719 40.9922 77.668 40.9648 77.6602 40.9414C77.6523 40.9102 77.6445 40.8789 77.6367 40.8477C77.6367 40.8086 77.6367 40.75 77.6367 40.6719V39.9102C77.6367 39.8789 77.6289 39.793 77.6133 39.6523C77.6055 39.5117 77.5938 39.3633 77.5781 39.207C77.5703 39.043 77.5625 38.8906 77.5547 38.75C77.5469 38.6016 77.543 38.5078 77.543 38.4688V36.8867C77.543 36.8789 77.5352 36.8477 77.5195 36.793C77.5117 36.7383 77.5 36.6797 77.4844 36.6172C77.4766 36.5547 77.4648 36.5 77.4492 36.4531C77.4414 36.3984 77.4375 36.3672 77.4375 36.3594V36.1719V36.0078C77.4375 35.9844 77.4414 35.9453 77.4492 35.8906C77.4648 35.8281 77.4766 35.7617 77.4844 35.6914C77.5 35.6211 77.5117 35.5586 77.5195 35.5039C77.5352 35.4414 77.543 35.4023 77.543 35.3867V33.9688V32.5508C77.5273 32.2539 77.4727 32.0234 77.3789 31.8594C77.293 31.6953 77.1172 31.5742 76.8516 31.4961C76.8516 31.4805 76.8359 31.4727 76.8047 31.4727C76.7812 31.4727 76.7617 31.4727 76.7461 31.4727C76.6602 31.4727 76.582 31.4883 76.5117 31.5195C76.4414 31.5508 76.3633 31.5664 76.2773 31.5664H76.1367C76.082 31.5664 76.0039 31.5625 75.9023 31.5547C75.8008 31.5469 75.6953 31.5391 75.5859 31.5312C75.4844 31.5234 75.3906 31.5156 75.3047 31.5078C75.2266 31.5 75.1797 31.4961 75.1641 31.4961C75.0781 31.457 75.0039 31.3984 74.9414 31.3203C74.8867 31.2422 74.8594 31.1484 74.8594 31.0391C74.8594 31 74.8633 30.9531 74.8711 30.8984C74.8867 30.8359 74.9023 30.7852 74.918 30.7461C74.9414 30.707 74.9766 30.6484 75.0234 30.5703C75.0781 30.4844 75.125 30.4336 75.1641 30.418C75.1797 30.418 75.2148 30.418 75.2695 30.418C75.3242 30.4102 75.3789 30.4062 75.4336 30.4062C75.4961 30.4062 75.5547 30.4062 75.6094 30.4062C75.6641 30.3984 75.6992 30.3945 75.7148 30.3945C75.8945 30.3945 76.0664 30.3984 76.2305 30.4062C76.4023 30.4141 76.5742 30.4453 76.7461 30.5H78.4102C79.3867 30.5 80.3672 30.4883 81.3516 30.4648C82.3359 30.4336 83.3281 30.418 84.3281 30.418H86.0508C86.082 30.418 86.168 30.4219 86.3086 30.4297C86.457 30.4375 86.6133 30.4492 86.7773 30.4648C86.9414 30.4727 87.0938 30.4805 87.2344 30.4883C87.375 30.4961 87.4609 30.5 87.4922 30.5H88.3594C88.3828 30.5 88.4219 30.5039 88.4766 30.5117C88.5391 30.5195 88.6055 30.5312 88.6758 30.5469C88.7461 30.5547 88.8086 30.5664 88.8633 30.582C88.9258 30.5898 88.9688 30.6016 88.9922 30.6172C89.0391 30.625 89.0742 30.6523 89.0977 30.6992C89.1289 30.7383 89.1484 30.7852 89.1562 30.8398C89.1719 30.8945 89.1797 30.9531 89.1797 31.0156C89.1875 31.0703 89.1914 31.1133 89.1914 31.1445C89.1914 31.1836 89.1836 31.25 89.168 31.3438C89.1602 31.4297 89.1562 31.4805 89.1562 31.4961C89.1562 31.543 89.1484 31.668 89.1328 31.8711C89.1172 32.0742 89.0977 32.2891 89.0742 32.5156C89.0586 32.7422 89.043 32.957 89.0273 33.1602C89.0117 33.3555 89 33.4766 88.9922 33.5234V34.3906C88.9922 34.4766 88.9609 34.5508 88.8984 34.6133C88.8438 34.668 88.7812 34.6953 88.7109 34.6953C88.6172 34.6953 88.5391 34.6602 88.4766 34.5898C88.4219 34.5195 88.3711 34.4375 88.3242 34.3438C88.2773 34.25 88.2344 34.1523 88.1953 34.0508C88.1562 33.9492 88.1172 33.8672 88.0781 33.8047C88.0781 33.7891 88.0664 33.7734 88.043 33.7578C88.0273 33.7422 88.0117 33.7266 87.9961 33.7109C87.9648 33.6875 87.9375 33.6641 87.9141 33.6406C87.9062 33.6172 87.8906 33.582 87.8672 33.5352C87.8438 33.4883 87.8164 33.4414 87.7852 33.3945C87.7617 33.3477 87.7383 33.3047 87.7148 33.2656C87.6914 33.2266 87.6719 33.2031 87.6562 33.1953C87.5703 32.9922 87.4648 32.7734 87.3398 32.5391C87.2148 32.3047 87.0625 32.125 86.8828 32C86.875 32 86.8516 31.9961 86.8125 31.9883C86.7734 31.9805 86.7305 31.9766 86.6836 31.9766C86.6445 31.9688 86.6055 31.9609 86.5664 31.9531C86.5273 31.9453 86.5039 31.9414 86.4961 31.9414C86.4961 31.9336 86.4727 31.918 86.4258 31.8945C86.3867 31.8633 86.3398 31.832 86.2852 31.8008C86.2305 31.7695 86.1797 31.7422 86.1328 31.7188C86.0859 31.6875 86.0586 31.6641 86.0508 31.6484C86.0508 31.6406 86.0273 31.6289 85.9805 31.6133C85.9336 31.5977 85.9023 31.582 85.8867 31.5664C85.8398 31.5664 85.7422 31.5586 85.5938 31.543C85.4531 31.5195 85.3008 31.5 85.1367 31.4844C84.9727 31.4609 84.8164 31.4414 84.668 31.4258C84.5273 31.4023 84.4297 31.3828 84.375 31.3672C84.3516 31.3672 84.2969 31.3594 84.2109 31.3438C84.1328 31.3203 84.0781 31.3008 84.0469 31.2852C83.7969 31.2773 83.5469 31.2695 83.2969 31.2617C83.0469 31.2539 82.7969 31.25 82.5469 31.25C82.2969 31.25 82.0508 31.2539 81.8086 31.2617C81.5742 31.2695 81.332 31.2773 81.082 31.2852C81.0273 31.3008 80.9727 31.3242 80.918 31.3555C80.8711 31.3789 80.8242 31.4062 80.7773 31.4375C80.7305 31.4609 80.6914 31.4805 80.6602 31.4961C80.543 31.543 80.4414 31.625 80.3555 31.7422C80.2773 31.8516 80.2109 31.9727 80.1562 32.1055C80.1094 32.2383 80.0742 32.3789 80.0508 32.5273C80.0352 32.668 80.0273 32.7969 80.0273 32.9141V32.9609C80.0273 32.9844 80.0352 32.9961 80.0508 32.9961C80.0508 33.0039 80.0547 33.0352 80.0625 33.0898C80.0703 33.1367 80.0781 33.1914 80.0859 33.2539C80.1016 33.3164 80.1133 33.375 80.1211 33.4297C80.1289 33.4844 80.1328 33.5156 80.1328 33.5234C80.1406 33.6016 80.1445 33.7383 80.1445 33.9336C80.1523 34.1211 80.1562 34.3242 80.1562 34.543C80.1641 34.7617 80.168 34.9688 80.168 35.1641C80.1758 35.3516 80.1797 35.4844 80.1797 35.5625L80.1914 35.832V37.8594L80.2969 38.1172C80.3047 38.1172 80.3359 38.1211 80.3906 38.1289C80.4453 38.1367 80.5078 38.1484 80.5781 38.1641C80.6562 38.1719 80.7305 38.1797 80.8008 38.1875C80.8789 38.1953 80.9414 38.1992 80.9883 38.1992H81.1875C81.5938 38.1992 82.0078 38.1719 82.4297 38.1172C82.8516 38.0625 83.2617 38.0078 83.6602 37.9531C83.9258 37.9062 84.1719 37.8477 84.3984 37.7773C84.625 37.707 84.8438 37.6133 85.0547 37.4961C85.125 37.3945 85.1836 37.25 85.2305 37.0625C85.2852 36.875 85.332 36.6719 85.3711 36.4531C85.4102 36.2344 85.4453 36.0117 85.4766 35.7852C85.5156 35.5586 85.5547 35.3555 85.5938 35.1758C85.6328 34.9883 85.6758 34.832 85.7227 34.707C85.7695 34.582 85.8242 34.5117 85.8867 34.4961H86.1328C86.2578 34.4961 86.3555 34.5234 86.4258 34.5781C86.4961 34.625 86.5508 34.6914 86.5898 34.7773C86.6289 34.8633 86.6523 34.9609 86.6602 35.0703C86.6758 35.1719 86.6836 35.2773 86.6836 35.3867C86.6836 35.4023 86.6797 35.4375 86.6719 35.4922C86.6641 35.5391 86.6523 35.5938 86.6367 35.6562C86.6289 35.7188 86.6211 35.7773 86.6133 35.832C86.6055 35.8789 86.6016 35.9102 86.6016 35.9258V37.4258C86.6016 37.4414 86.5977 37.4844 86.5898 37.5547C86.582 37.625 86.5703 37.6992 86.5547 37.7773C86.5469 37.8555 86.5352 37.9297 86.5195 38C86.5117 38.0625 86.5039 38.1016 86.4961 38.1172V39.1953V40.2734C86.5039 40.2969 86.5117 40.3438 86.5195 40.4141C86.5273 40.4766 86.5352 40.5469 86.543 40.625C86.5508 40.7031 86.5586 40.7773 86.5664 40.8477C86.5742 40.918 86.5859 40.9688 86.6016 41C86.6094 41.0156 86.6211 41.0352 86.6367 41.0586C86.6445 41.0977 86.6602 41.125 86.6836 41.1406V41.1758V41.2227C86.6758 41.2383 86.668 41.2695 86.6602 41.3164C86.6523 41.3555 86.6445 41.4023 86.6367 41.457C86.6289 41.5039 86.6211 41.5508 86.6133 41.5977C86.6055 41.6367 86.6016 41.668 86.6016 41.6914C86.5859 41.7695 86.5781 41.8555 86.5781 41.9492C86.5781 42.0352 86.5664 42.1172 86.543 42.1953C86.5195 42.2734 86.4766 42.3398 86.4141 42.3945C86.3594 42.4492 86.2734 42.4766 86.1562 42.4766C85.9922 42.4766 85.8711 42.4219 85.793 42.3125C85.7227 42.1953 85.6758 42.0625 85.6523 41.9141C85.6289 41.7578 85.6172 41.6016 85.6172 41.4453C85.625 41.2891 85.6211 41.168 85.6055 41.082C85.6055 41.082 85.5977 41.0664 85.582 41.0352C85.5742 41.0273 85.5703 41.0156 85.5703 41C85.5078 40.8672 85.4648 40.7227 85.4414 40.5664C85.418 40.4023 85.3633 40.2695 85.2773 40.168C85.2617 40.1367 85.2305 40.0977 85.1836 40.0508C85.1367 40.0039 85.0859 39.957 85.0312 39.9102C84.9844 39.8633 84.9414 39.8242 84.9023 39.793C84.8633 39.7539 84.8398 39.7305 84.832 39.7227C84.8086 39.707 84.7539 39.6875 84.668 39.6641C84.582 39.6406 84.4883 39.6133 84.3867 39.582C84.293 39.5508 84.1953 39.5234 84.0938 39.5C84 39.4766 83.9297 39.457 83.8828 39.4414C83.8359 39.4414 83.7305 39.4375 83.5664 39.4297C83.4102 39.4141 83.2344 39.3984 83.0391 39.3828C82.8516 39.3594 82.6641 39.3398 82.4766 39.3242C82.2891 39.3086 82.1484 39.3008 82.0547 39.3008H81.457C81.4336 39.3008 81.3867 39.2891 81.3164 39.2656C81.2461 39.2344 81.2031 39.2109 81.1875 39.1953H81.1289H81.082C81.0742 39.2109 81.0469 39.2344 81 39.2656C80.9609 39.2891 80.9375 39.3008 80.9297 39.3008C80.8984 39.3086 80.8438 39.3242 80.7656 39.3477C80.6875 39.3711 80.6055 39.3984 80.5195 39.4297C80.4414 39.4531 80.3633 39.4766 80.2852 39.5C80.2148 39.5234 80.1641 39.543 80.1328 39.5586V40.0039V40.4492C80.1328 40.4648 80.1484 40.5078 80.1797 40.5781C80.2188 40.6484 80.2383 40.6953 80.2383 40.7188V41.6914C80.2383 41.6992 80.2461 41.7539 80.2617 41.8555C80.2852 41.9492 80.2969 42 80.2969 42.0078C80.2969 42.0234 80.2852 42.0586 80.2617 42.1133C80.2461 42.168 80.2383 42.2031 80.2383 42.2188C80.2148 42.25 80.1914 42.2969 80.168 42.3594C80.1445 42.4219 80.1328 42.4609 80.1328 42.4766V45.6055C80.1328 45.6445 80.1523 45.707 80.1914 45.793C80.2383 45.8789 80.2734 45.9297 80.2969 45.9453C80.3047 45.9531 80.332 45.9609 80.3789 45.9688C80.4258 45.9766 80.4766 45.9883 80.5312 46.0039C80.5938 46.0117 80.6523 46.0195 80.707 46.0273C80.7695 46.0352 80.8164 46.043 80.8477 46.0508H81.6914C81.7695 46.0508 81.8594 46.0664 81.9609 46.0977C82.0703 46.1211 82.1719 46.1562 82.2656 46.2031C82.3594 46.25 82.4375 46.3086 82.5 46.3789C82.5703 46.4414 82.6055 46.5195 82.6055 46.6133C82.6055 46.7539 82.5352 46.8672 82.3945 46.9531C82.2617 47.0391 82.125 47.082 81.9844 47.082H79.1836C79.1602 47.082 79.125 47.0781 79.0781 47.0703C79.0312 47.0625 78.9766 47.0547 78.9141 47.0469C78.8594 47.0391 78.8008 47.0312 78.7383 47.0234C78.6836 47.0156 78.6406 47.0078 78.6094 47L78.5391 46.9531C78.5234 46.9375 78.5039 46.9258 78.4805 46.918C78.4648 46.9023 78.4531 46.8945 78.4453 46.8945H78.4102H78.375C77.9453 47.0039 77.5273 47.0742 77.1211 47.1055C76.7148 47.1445 76.3008 47.1641 75.8789 47.1641H75.3516C75.2188 47.1484 75.1211 47.0859 75.0586 46.9766C74.9961 46.8594 74.9648 46.7461 74.9648 46.6367ZM91.5469 42.3594C91.5469 42.4688 91.5977 42.5469 91.6992 42.5938C91.8008 42.6406 91.8945 42.6641 91.9805 42.6641H92.6016C92.6875 42.6641 92.7734 42.668 92.8594 42.6758C92.9453 42.6836 93.0312 42.6875 93.1172 42.6875C93.3203 42.6875 93.4961 42.6562 93.6445 42.5938C93.793 42.5234 93.8672 42.3711 93.8672 42.1367V41.9375C93.7969 41.5781 93.6914 41.2227 93.5508 40.8711C93.4102 40.5117 93.2773 40.1641 93.1523 39.8281C93.1367 39.7734 93.1133 39.7148 93.082 39.6523C93.0586 39.582 93.0273 39.5195 92.9883 39.4648C92.9492 39.4023 92.9062 39.3516 92.8594 39.3125C92.8125 39.2734 92.7617 39.2539 92.707 39.2539C92.6055 39.2539 92.5234 39.2969 92.4609 39.3828C92.4062 39.4688 92.3594 39.5703 92.3203 39.6875C92.2891 39.8047 92.2617 39.9258 92.2383 40.0508C92.2148 40.168 92.1875 40.2617 92.1562 40.332C92.1328 40.4023 92.0898 40.5273 92.0273 40.707C91.9727 40.8867 91.9141 41.0781 91.8516 41.2812C91.7891 41.4766 91.7266 41.6641 91.6641 41.8438C91.6094 42.0234 91.5703 42.1484 91.5469 42.2188V42.3594ZM88.8164 46.9414H88.7578C88.7422 46.9414 88.7031 46.9492 88.6406 46.9648C88.5781 46.9727 88.5078 46.9844 88.4297 47C88.3516 47.0078 88.2773 47.0156 88.207 47.0234C88.1445 47.0312 88.1055 47.0352 88.0898 47.0352H88.0195C87.9727 47.0352 87.9336 47.0156 87.9023 46.9766C87.8711 46.9375 87.8477 46.8945 87.832 46.8477C87.8164 46.793 87.8086 46.7422 87.8086 46.6953C87.8008 46.6406 87.7969 46.6055 87.7969 46.5898V46.5547C87.7969 46.4141 87.8438 46.3203 87.9375 46.2734C88.0391 46.2266 88.1367 46.1836 88.2305 46.1445C88.2461 46.1445 88.2852 46.1328 88.3477 46.1094C88.4102 46.0781 88.4766 46.0469 88.5469 46.0156C88.625 45.9844 88.6953 45.957 88.7578 45.9336C88.8203 45.9023 88.8594 45.8789 88.875 45.8633C88.8828 45.8555 88.9062 45.8359 88.9453 45.8047C88.9844 45.7656 89.0273 45.7227 89.0742 45.6758C89.1211 45.6289 89.1641 45.582 89.2031 45.5352C89.25 45.4883 89.2891 45.4492 89.3203 45.418C89.3281 45.4023 89.3398 45.3828 89.3555 45.3594C89.3867 45.3125 89.4023 45.2773 89.4023 45.2539C89.4023 45.2383 89.4102 45.1914 89.4258 45.1133C89.4492 45.0352 89.4688 44.9883 89.4844 44.9727C89.6953 44.5508 89.9062 44.125 90.1172 43.6953C90.3281 43.2578 90.5273 42.8203 90.7148 42.3828C90.7383 42.3594 90.7695 42.293 90.8086 42.1836C90.8555 42.0664 90.8867 41.9844 90.9023 41.9375C90.9102 41.9219 90.9297 41.875 90.9609 41.7969C90.9922 41.7109 91.0234 41.625 91.0547 41.5391C91.0859 41.4453 91.1133 41.3594 91.1367 41.2812C91.168 41.2031 91.1836 41.1562 91.1836 41.1406C91.1914 41.1172 91.2148 41.0625 91.2539 40.9766C91.3008 40.8906 91.3477 40.7969 91.3945 40.6953C91.4492 40.5938 91.4961 40.4961 91.5352 40.4023C91.582 40.3086 91.6133 40.25 91.6289 40.2266C91.6914 40.0859 91.75 39.9609 91.8047 39.8516C91.8672 39.7344 91.9258 39.5977 91.9805 39.4414C92.0117 39.3789 92.0508 39.3086 92.0977 39.2305C92.1523 39.1523 92.2031 39.0703 92.25 38.9844C92.2969 38.8906 92.3359 38.8008 92.3672 38.7148C92.4062 38.6289 92.4258 38.5469 92.4258 38.4688V38.3047C92.4258 38.2734 92.4141 38.2227 92.3906 38.1523C92.375 38.0742 92.3672 38.0312 92.3672 38.0234C92.3672 37.9688 92.3984 37.8984 92.4609 37.8125C92.5234 37.7266 92.5703 37.6719 92.6016 37.6484C92.6172 37.6406 92.6523 37.625 92.707 37.6016C92.7695 37.5781 92.832 37.5508 92.8945 37.5195C92.957 37.4883 93.0117 37.4609 93.0586 37.4375C93.1133 37.4141 93.1445 37.3984 93.1523 37.3906C93.168 37.375 93.1992 37.3438 93.2461 37.2969C93.293 37.25 93.3438 37.1992 93.3984 37.1445C93.4609 37.082 93.5156 37.0234 93.5625 36.9688C93.6172 36.9062 93.6562 36.8633 93.6797 36.8398C93.6875 36.832 93.7031 36.8086 93.7266 36.7695C93.75 36.7227 93.7773 36.6797 93.8086 36.6406C93.8398 36.5938 93.875 36.5547 93.9141 36.5234C93.9531 36.4844 93.9961 36.4688 94.043 36.4766C94.1211 36.5 94.1875 36.5703 94.2422 36.6875C94.3047 36.8047 94.3555 36.9336 94.3945 37.0742C94.4414 37.207 94.4805 37.3398 94.5117 37.4727C94.543 37.5977 94.5703 37.6836 94.5938 37.7305C94.6016 37.7695 94.6133 37.8242 94.6289 37.8945C94.6523 37.9648 94.6719 38.0352 94.6875 38.1055C94.7109 38.1758 94.7305 38.2383 94.7461 38.293C94.7617 38.3477 94.7695 38.3789 94.7695 38.3867C94.7773 38.4102 94.7891 38.4648 94.8047 38.5508C94.8203 38.6367 94.8359 38.7305 94.8516 38.832C94.875 38.9336 94.8945 39.0273 94.9102 39.1133C94.9258 39.1914 94.9336 39.2383 94.9336 39.2539C94.9414 39.2773 94.9609 39.3516 94.9922 39.4766C95.0312 39.6016 95.0742 39.7461 95.1211 39.9102C95.168 40.0742 95.2148 40.2383 95.2617 40.4023C95.3086 40.5586 95.3477 40.6836 95.3789 40.7773C95.4414 40.9883 95.5195 41.1992 95.6133 41.4102C95.707 41.6133 95.7773 41.8203 95.8242 42.0312C95.8633 42.2109 95.8867 42.3555 95.8945 42.4648C95.9102 42.5664 95.9492 42.6914 96.0117 42.8398C96.0195 42.8555 96.0352 42.8906 96.0586 42.9453C96.0898 42.9922 96.1211 43.0469 96.1523 43.1094C96.1836 43.1641 96.2109 43.2188 96.2344 43.2734C96.2578 43.3281 96.2734 43.3672 96.2812 43.3906C96.2812 43.4062 96.2852 43.4336 96.293 43.4727C96.3008 43.5117 96.3086 43.5586 96.3164 43.6133C96.332 43.6602 96.3438 43.707 96.3516 43.7539C96.3594 43.793 96.3672 43.8203 96.375 43.8359C96.375 43.8438 96.3828 43.8711 96.3984 43.918C96.4141 43.957 96.4336 44.0039 96.457 44.0586C96.4805 44.1055 96.5 44.1523 96.5156 44.1992C96.5391 44.2383 96.5547 44.2578 96.5625 44.2578C96.6016 44.4609 96.6523 44.6797 96.7148 44.9141C96.7773 45.1484 96.875 45.3555 97.0078 45.5352C97.0703 45.6289 97.1836 45.707 97.3477 45.7695C97.5195 45.832 97.6914 45.8945 97.8633 45.957C98.043 46.0195 98.1992 46.0898 98.332 46.168C98.4648 46.2461 98.5312 46.3477 98.5312 46.4727C98.5312 46.6055 98.4961 46.7109 98.4258 46.7891C98.3633 46.8594 98.2812 46.9141 98.1797 46.9531C98.0781 46.9922 97.9648 47.0156 97.8398 47.0234C97.7148 47.0312 97.5977 47.0352 97.4883 47.0352H97.2539H97.0078C96.8828 47.0352 96.6641 47.0312 96.3516 47.0234C96.0391 47.0156 95.7031 47.0078 95.3438 47C94.9922 46.9844 94.6562 46.9727 94.3359 46.9648C94.0234 46.9492 93.8047 46.9414 93.6797 46.9414C93.5938 46.9102 93.543 46.875 93.5273 46.8359C93.5117 46.7891 93.5039 46.7227 93.5039 46.6367V46.5547C93.5039 46.5391 93.5078 46.5234 93.5156 46.5078C93.5859 46.3594 93.6836 46.2617 93.8086 46.2148C93.9336 46.1602 94.0625 46.1172 94.1953 46.0859C94.3359 46.0547 94.4727 46.0195 94.6055 45.9805C94.7383 45.9336 94.8477 45.8398 94.9336 45.6992L94.957 45.6172L94.9336 45.5352C94.9258 45.4648 94.9062 45.3672 94.875 45.2422C94.8516 45.1172 94.8242 44.9922 94.793 44.8672C94.7695 44.7422 94.7461 44.6328 94.7227 44.5391C94.6992 44.4375 94.6836 44.3789 94.6758 44.3633C94.6602 44.3477 94.6367 44.3086 94.6055 44.2461C94.5742 44.1836 94.5391 44.1133 94.5 44.0352C94.4688 43.957 94.4336 43.8828 94.3945 43.8125C94.3633 43.7344 94.3359 43.6758 94.3125 43.6367C94.2266 43.5039 94.1055 43.4258 93.9492 43.4023C93.8008 43.3711 93.6523 43.3555 93.5039 43.3555H93.2695C92.9883 43.3555 92.7227 43.375 92.4727 43.4141C92.2305 43.4531 91.9727 43.4727 91.6992 43.4727C91.6445 43.4727 91.5898 43.4688 91.5352 43.4609C91.4805 43.4531 91.4258 43.4492 91.3711 43.4492C91.3164 43.5039 91.2891 43.5469 91.2891 43.5781C91.2734 43.5859 91.2539 43.6172 91.2305 43.6719C91.2148 43.7188 91.1953 43.7734 91.1719 43.8359C91.1562 43.8906 91.1367 43.9453 91.1133 44C91.0977 44.0469 91.0898 44.0742 91.0898 44.082C91.0898 44.0977 91.0625 44.1445 91.0078 44.2227C90.9609 44.3008 90.9258 44.3477 90.9023 44.3633C90.8086 44.5586 90.7539 44.7617 90.7383 44.9727C90.7227 45.1758 90.7148 45.3867 90.7148 45.6055C90.7148 45.7305 90.7539 45.8242 90.832 45.8867C90.9102 45.9414 91.0078 45.9844 91.125 46.0156C91.2422 46.0469 91.3672 46.0742 91.5 46.0977C91.6328 46.1133 91.7578 46.1406 91.875 46.1797C91.9922 46.2109 92.0898 46.2617 92.168 46.332C92.2461 46.4023 92.2852 46.5039 92.2852 46.6367C92.2852 46.8945 92.1641 47.0547 91.9219 47.1172C91.8906 47.1172 91.832 47.1133 91.7461 47.1055C91.668 47.0977 91.5859 47.0898 91.5 47.082C91.4141 47.0742 91.332 47.0664 91.2539 47.0586C91.1758 47.0508 91.1211 47.043 91.0898 47.0352H90.2578H89.9297C89.9062 47.0352 89.8438 47.0312 89.7422 47.0234C89.6406 47.0156 89.5273 47.0078 89.4023 47C89.2773 46.9844 89.1641 46.9727 89.0625 46.9648C88.9609 46.9492 88.8984 46.9414 88.875 46.9414H88.8164ZM99.8086 40.7305C99.8086 40.7148 99.8086 40.6797 99.8086 40.625C99.8164 40.5625 99.8242 40.5 99.832 40.4375C99.8398 40.3672 99.8477 40.3047 99.8555 40.25C99.8633 40.1953 99.8711 40.1602 99.8789 40.1445C99.9258 39.9727 99.9766 39.8359 100.031 39.7344C100.094 39.625 100.156 39.4922 100.219 39.3359C100.242 39.3203 100.266 39.2812 100.289 39.2188C100.312 39.1562 100.328 39.1094 100.336 39.0781C100.398 38.8594 100.488 38.6406 100.605 38.4219C100.73 38.2031 100.871 37.9922 101.027 37.7891C101.184 37.5859 101.348 37.3945 101.52 37.2148C101.691 37.0352 101.859 36.8789 102.023 36.7461C102.031 36.7383 102.051 36.7266 102.082 36.7109C102.121 36.6953 102.16 36.6797 102.199 36.6641C102.238 36.6484 102.277 36.6328 102.316 36.6172C102.355 36.6016 102.379 36.5898 102.387 36.582C102.426 36.5586 102.484 36.5195 102.562 36.4648C102.641 36.4102 102.723 36.3555 102.809 36.3008C102.895 36.2461 102.977 36.1992 103.055 36.1602C103.141 36.1133 103.211 36.0898 103.266 36.0898H104.637C104.676 36.1523 104.711 36.1914 104.742 36.207C104.781 36.2148 104.828 36.2188 104.883 36.2188C104.992 36.2188 105.098 36.1992 105.199 36.1602C105.301 36.1133 105.41 36.0898 105.527 36.0898C105.605 36.0898 105.695 36.1094 105.797 36.1484C105.906 36.1875 106.02 36.2344 106.137 36.2891C106.254 36.3359 106.371 36.3789 106.488 36.418C106.605 36.457 106.711 36.4766 106.805 36.4766C106.898 36.4766 107.008 36.4492 107.133 36.3945C107.258 36.332 107.395 36.3008 107.543 36.3008H107.637C107.66 36.3086 107.684 36.3359 107.707 36.3828C107.73 36.4219 107.742 36.4453 107.742 36.4531V39.7812C107.742 39.9062 107.723 40.0117 107.684 40.0977C107.645 40.1836 107.555 40.2266 107.414 40.2266C107.367 40.2266 107.316 40.1719 107.262 40.0625C107.207 39.9531 107.152 39.8281 107.098 39.6875C107.043 39.5469 106.992 39.4102 106.945 39.2773C106.906 39.1367 106.879 39.0352 106.863 38.9727C106.855 38.957 106.84 38.918 106.816 38.8555C106.801 38.793 106.781 38.7266 106.758 38.6562C106.734 38.5859 106.715 38.5195 106.699 38.457C106.684 38.3945 106.672 38.3555 106.664 38.3398C106.656 38.3398 106.621 38.3008 106.559 38.2227C106.496 38.1445 106.422 38.0547 106.336 37.9531C106.258 37.8438 106.172 37.7383 106.078 37.6367C105.992 37.5273 105.918 37.4375 105.855 37.3672C105.84 37.3359 105.809 37.3008 105.762 37.2617C105.723 37.2148 105.691 37.1914 105.668 37.1914C105.637 37.1758 105.578 37.1484 105.492 37.1094C105.414 37.0625 105.328 37.0156 105.234 36.9688C105.141 36.9219 105.051 36.8789 104.965 36.8398C104.887 36.793 104.832 36.7617 104.801 36.7461H104.66H104.52C104.465 36.7461 104.383 36.75 104.273 36.7578C104.164 36.7656 104.055 36.7734 103.945 36.7812C103.836 36.7891 103.734 36.8008 103.641 36.8164C103.547 36.8242 103.488 36.832 103.465 36.8398C103.41 36.8398 103.336 36.8516 103.242 36.875C103.156 36.8906 103.113 36.9062 103.113 36.9219C103.098 36.9219 103.07 36.9688 103.031 37.0625C103 37.1484 102.969 37.2188 102.938 37.2734C102.922 37.2812 102.902 37.3086 102.879 37.3555C102.863 37.3945 102.844 37.4414 102.82 37.4961C102.805 37.543 102.789 37.5898 102.773 37.6367C102.758 37.6836 102.75 37.7148 102.75 37.7305C102.688 37.8398 102.621 37.9258 102.551 37.9883C102.48 38.0508 102.426 38.1367 102.387 38.2461C102.379 38.2695 102.371 38.3047 102.363 38.3516C102.363 38.3906 102.355 38.4336 102.34 38.4805C102.332 38.5273 102.316 38.5742 102.293 38.6211C102.277 38.6602 102.254 38.6875 102.223 38.7031C102.121 39.0469 102.059 39.3711 102.035 39.6758C102.012 39.9805 102 40.3008 102 40.6367V40.9766C102 41.0156 102 41.0938 102 41.2109C102 41.3203 102 41.4414 102 41.5742C102 41.6992 102 41.8242 102 41.9492C102.008 42.0664 102.016 42.1484 102.023 42.1953C102.086 42.2734 102.125 42.3555 102.141 42.4414C102.164 42.5195 102.176 42.6055 102.176 42.6992C102.184 42.7852 102.188 42.875 102.188 42.9688C102.188 43.0625 102.199 43.1562 102.223 43.25C102.223 43.2656 102.234 43.2812 102.258 43.2969C102.281 43.3047 102.293 43.3164 102.293 43.332C102.293 43.3555 102.305 43.3984 102.328 43.4609C102.359 43.5234 102.391 43.5898 102.422 43.6602C102.461 43.7305 102.492 43.7969 102.516 43.8594C102.547 43.9219 102.566 43.957 102.574 43.9648C102.574 43.9727 102.582 43.9883 102.598 44.0117C102.621 44.0273 102.633 44.043 102.633 44.0586C102.711 44.1445 102.773 44.2188 102.82 44.2812C102.867 44.3438 102.91 44.4062 102.949 44.4688C102.988 44.5234 103.023 44.582 103.055 44.6445C103.094 44.707 103.137 44.7773 103.184 44.8555C103.254 44.9648 103.371 45.0742 103.535 45.1836C103.707 45.293 103.891 45.3906 104.086 45.4766C104.289 45.5547 104.488 45.6211 104.684 45.6758C104.879 45.7227 105.039 45.7461 105.164 45.7461H105.223C105.262 45.7461 105.316 45.7383 105.387 45.7227C105.465 45.6992 105.512 45.6797 105.527 45.6641C105.527 45.6406 105.562 45.5938 105.633 45.5234C105.711 45.4531 105.758 45.4102 105.773 45.3945C105.828 45.3477 105.891 45.3164 105.961 45.3008C106.039 45.2773 106.113 45.2539 106.184 45.2305C106.262 45.207 106.332 45.1836 106.395 45.1602C106.465 45.1289 106.523 45.0859 106.57 45.0312C106.578 45.0234 106.594 44.9922 106.617 44.9375C106.648 44.8828 106.68 44.8242 106.711 44.7617C106.742 44.6992 106.77 44.6406 106.793 44.5859C106.824 44.5312 106.848 44.4961 106.863 44.4805C106.879 44.4648 106.918 44.4258 106.98 44.3633C107.043 44.293 107.113 44.2227 107.191 44.1523C107.27 44.0742 107.34 44 107.402 43.9297C107.473 43.8594 107.523 43.8086 107.555 43.7773H107.637C107.73 43.7773 107.785 43.8086 107.801 43.8711C107.816 43.9258 107.824 43.9961 107.824 44.082C107.824 44.2852 107.809 44.4922 107.777 44.7031C107.746 44.9062 107.699 45.1055 107.637 45.3008C107.402 45.5586 107.18 45.793 106.969 46.0039C106.758 46.2148 106.535 46.3945 106.301 46.543C106.066 46.6836 105.809 46.7969 105.527 46.8828C105.254 46.9609 104.93 47 104.555 47C104.18 47 103.82 46.9766 103.477 46.9297C103.133 46.875 102.805 46.7891 102.492 46.6719C102.188 46.5469 101.898 46.3828 101.625 46.1797C101.352 45.9688 101.098 45.707 100.863 45.3945C100.637 45.082 100.449 44.7891 100.301 44.5156C100.152 44.2344 100.012 43.9062 99.8789 43.5312C99.8633 43.4688 99.8438 43.4062 99.8203 43.3438C99.8047 43.2734 99.7891 43.1953 99.7734 43.1094C99.7578 43.0156 99.7422 42.9062 99.7266 42.7812C99.7188 42.6562 99.7148 42.5 99.7148 42.3125V40.9414C99.7305 40.9258 99.7461 40.8945 99.7617 40.8477C99.7773 40.793 99.793 40.7539 99.8086 40.7305ZM112.828 46.918C112.828 46.8164 112.852 46.7383 112.898 46.6836C112.945 46.6211 113.004 46.5703 113.074 46.5312C113.152 46.4922 113.266 46.4609 113.414 46.4375C113.562 46.4062 113.711 46.375 113.859 46.3438C114.016 46.3047 114.152 46.2578 114.27 46.2031C114.387 46.1406 114.457 46.0547 114.48 45.9453V45.6992V45.582C114.48 45.5273 114.48 45.4062 114.48 45.2188C114.488 45.0234 114.492 44.8008 114.492 44.5508C114.5 44.293 114.508 44.0195 114.516 43.7305C114.523 43.4414 114.527 43.168 114.527 42.9102C114.535 42.6523 114.539 42.4297 114.539 42.2422C114.547 42.0469 114.551 41.918 114.551 41.8555V39.8281V37.8125C114.512 37.6719 114.418 37.5508 114.27 37.4492C114.129 37.3398 113.98 37.2852 113.824 37.2852H112.324C112.27 37.2852 112.191 37.3086 112.09 37.3555C111.988 37.4023 111.918 37.4336 111.879 37.4492C111.582 37.6289 111.344 37.8242 111.164 38.0352C110.984 38.2383 110.805 38.4609 110.625 38.7031C110.609 38.7188 110.586 38.7461 110.555 38.7852C110.531 38.8242 110.504 38.8711 110.473 38.9258C110.449 38.9727 110.422 39.0195 110.391 39.0664C110.367 39.1055 110.352 39.1328 110.344 39.1484C110.328 39.1875 110.301 39.2383 110.262 39.3008C110.223 39.3633 110.18 39.4258 110.133 39.4883C110.086 39.5508 110.035 39.6055 109.98 39.6523C109.934 39.6992 109.891 39.7227 109.852 39.7227C109.773 39.7227 109.707 39.7031 109.652 39.6641C109.605 39.625 109.566 39.5742 109.535 39.5117C109.512 39.4492 109.492 39.3828 109.477 39.3125C109.469 39.2344 109.465 39.1602 109.465 39.0898C109.465 38.918 109.48 38.7539 109.512 38.5977C109.543 38.4414 109.574 38.2773 109.605 38.1055C109.629 38.0039 109.652 37.8477 109.676 37.6367C109.707 37.418 109.746 37.2031 109.793 36.9922C109.84 36.7734 109.906 36.582 109.992 36.418C110.078 36.2539 110.195 36.1719 110.344 36.1719C110.352 36.1719 110.367 36.1758 110.391 36.1836C110.414 36.1836 110.434 36.1836 110.449 36.1836C110.473 36.1914 110.496 36.1953 110.52 36.1953C110.543 36.2109 110.59 36.2383 110.66 36.2773C110.73 36.3086 110.805 36.3438 110.883 36.3828C110.969 36.4219 111.047 36.457 111.117 36.4883C111.188 36.5195 111.23 36.5352 111.246 36.5352C111.254 36.543 111.277 36.5508 111.316 36.5586C111.363 36.5586 111.41 36.5586 111.457 36.5586C111.512 36.5586 111.562 36.5586 111.609 36.5586C111.656 36.5586 111.688 36.5586 111.703 36.5586C111.703 36.5586 111.723 36.5664 111.762 36.582C111.809 36.5898 111.855 36.6016 111.902 36.6172C111.957 36.6328 112.004 36.6484 112.043 36.6641C112.09 36.6719 112.117 36.6758 112.125 36.6758C112.516 36.6758 112.902 36.6406 113.285 36.5703C113.676 36.4922 114.066 36.4531 114.457 36.4531C115.145 36.4531 115.824 36.4922 116.496 36.5703C117.176 36.6406 117.855 36.6758 118.535 36.6758H119.133C119.148 36.668 119.188 36.6562 119.25 36.6406C119.312 36.6172 119.379 36.5977 119.449 36.582C119.52 36.5586 119.59 36.5352 119.66 36.5117C119.73 36.4883 119.781 36.4688 119.812 36.4531C119.883 36.4297 119.941 36.4023 119.988 36.3711C120.035 36.332 120.078 36.293 120.117 36.2539C120.164 36.2148 120.215 36.1836 120.27 36.1602C120.324 36.1289 120.395 36.1133 120.48 36.1133C120.629 36.1133 120.746 36.1836 120.832 36.3242C120.926 36.457 120.996 36.6172 121.043 36.8047C121.098 36.9922 121.137 37.1836 121.16 37.3789C121.191 37.5664 121.227 37.7109 121.266 37.8125C121.297 37.9766 121.344 38.1445 121.406 38.3164C121.477 38.4883 121.512 38.668 121.512 38.8555C121.512 38.9102 121.504 38.9727 121.488 39.043C121.48 39.1133 121.461 39.1797 121.43 39.2422C121.398 39.2969 121.355 39.3438 121.301 39.3828C121.246 39.4219 121.18 39.4414 121.102 39.4414C121.023 39.4414 120.93 39.3828 120.82 39.2656C120.711 39.1406 120.594 39.0039 120.469 38.8555C120.352 38.6992 120.234 38.5469 120.117 38.3984C120.008 38.25 119.906 38.1523 119.812 38.1055C119.797 38.0977 119.762 38.0781 119.707 38.0469C119.66 38.0156 119.605 37.9844 119.543 37.9531C119.488 37.9219 119.434 37.8945 119.379 37.8711C119.332 37.8398 119.301 37.8203 119.285 37.8125C119.137 37.7266 118.992 37.6328 118.852 37.5312C118.719 37.4297 118.57 37.3477 118.406 37.2852C118.383 37.2852 118.34 37.2852 118.277 37.2852C118.223 37.2852 118.164 37.2852 118.102 37.2852C118.039 37.2773 117.98 37.2734 117.926 37.2734C117.879 37.2734 117.844 37.2734 117.82 37.2734H117.598C117.434 37.2734 117.266 37.2852 117.094 37.3086C116.922 37.332 116.793 37.4062 116.707 37.5312C116.707 37.5938 116.711 37.6914 116.719 37.8242C116.727 37.957 116.73 38.1016 116.73 38.2578C116.73 38.4141 116.727 38.5586 116.719 38.6914C116.711 38.8242 116.707 38.918 116.707 38.9727C116.707 38.9883 116.699 39.0156 116.684 39.0547C116.676 39.0859 116.664 39.1211 116.648 39.1602C116.633 39.1992 116.617 39.2383 116.602 39.2773C116.594 39.3086 116.586 39.3281 116.578 39.3359V42.9102C116.508 43.0508 116.465 43.1602 116.449 43.2383C116.434 43.3164 116.426 43.4219 116.426 43.5547V43.7305C116.426 43.7461 116.43 43.7812 116.438 43.8359C116.453 43.8828 116.465 43.9375 116.473 44C116.488 44.0547 116.5 44.1094 116.508 44.1641C116.516 44.2109 116.52 44.2422 116.52 44.2578V45.582C116.543 45.7461 116.582 45.8906 116.637 46.0156C116.691 46.1406 116.809 46.2109 116.988 46.2266C117.02 46.2344 117.082 46.2422 117.176 46.25C117.277 46.2578 117.383 46.2656 117.492 46.2734C117.609 46.2812 117.719 46.2891 117.82 46.2969C117.93 46.3047 118.004 46.3086 118.043 46.3086C118.098 46.3477 118.141 46.4023 118.172 46.4727C118.211 46.5352 118.23 46.6016 118.23 46.6719C118.23 46.7344 118.215 46.7812 118.184 46.8125C118.16 46.8438 118.113 46.8867 118.043 46.9414C117.66 46.9336 117.254 46.9375 116.824 46.9531C116.402 46.9609 115.973 46.9727 115.535 46.9883C115.105 46.9961 114.68 47.0039 114.258 47.0117C113.836 47.0273 113.441 47.0352 113.074 47.0352C113.012 47.0352 112.953 47.0312 112.898 47.0234C112.852 47.0156 112.828 46.9805 112.828 46.918ZM123.445 43.4961C123.547 43.4648 123.645 43.5117 123.738 43.6367C123.84 43.7617 123.93 43.9141 124.008 44.0938C124.086 44.2656 124.152 44.4336 124.207 44.5977C124.262 44.7617 124.305 44.8594 124.336 44.8906C124.344 44.9062 124.367 44.9414 124.406 44.9961C124.445 45.043 124.488 45.0977 124.535 45.1602C124.59 45.2148 124.641 45.2695 124.688 45.3242C124.742 45.3789 124.781 45.418 124.805 45.4414C124.805 45.457 124.824 45.4883 124.863 45.5352C124.91 45.582 124.945 45.6094 124.969 45.6172C124.977 45.6562 125.004 45.7266 125.051 45.8281C125.098 45.9219 125.129 45.9766 125.145 45.9922C125.207 46.0859 125.301 46.168 125.426 46.2383C125.559 46.3008 125.699 46.3516 125.848 46.3906C125.996 46.4297 126.145 46.4609 126.293 46.4844C126.441 46.5 126.566 46.5078 126.668 46.5078H126.75C127.016 46.4375 127.258 46.3242 127.477 46.168C127.703 46.0117 127.895 45.8281 128.051 45.6172C128.215 45.4062 128.34 45.1719 128.426 44.9141C128.512 44.6562 128.555 44.3867 128.555 44.1055C128.555 43.9961 128.547 43.8594 128.531 43.6953C128.516 43.5312 128.453 43.3945 128.344 43.2852C128.312 43.2539 128.266 43.207 128.203 43.1445C128.148 43.082 128.09 43.0195 128.027 42.957C127.965 42.8945 127.906 42.8359 127.852 42.7812C127.805 42.7266 127.77 42.6953 127.746 42.6875C127.637 42.6016 127.523 42.5352 127.406 42.4883C127.289 42.4336 127.168 42.3945 127.043 42.3711C126.926 42.3398 126.805 42.3164 126.68 42.3008C126.562 42.2773 126.441 42.2539 126.316 42.2305C126.074 42.1758 125.793 42.0977 125.473 41.9961C125.16 41.8867 124.855 41.7539 124.559 41.5977C124.262 41.4414 123.992 41.2617 123.75 41.0586C123.508 40.8477 123.34 40.6055 123.246 40.332C123.223 40.293 123.199 40.2266 123.176 40.1328C123.152 40.0312 123.129 39.9219 123.105 39.8047C123.09 39.6875 123.078 39.5703 123.07 39.4531C123.062 39.3359 123.059 39.2305 123.059 39.1367C123.059 39.0117 123.066 38.9375 123.082 38.9141C123.082 38.9062 123.082 38.8828 123.082 38.8438C123.082 38.8047 123.082 38.7656 123.082 38.7266C123.09 38.6797 123.094 38.6367 123.094 38.5977C123.102 38.5586 123.109 38.5352 123.117 38.5273C123.117 38.5117 123.121 38.4766 123.129 38.4219C123.145 38.3594 123.16 38.2969 123.176 38.2344C123.199 38.1719 123.215 38.1133 123.223 38.0586C123.238 37.9961 123.246 37.957 123.246 37.9414C123.246 37.9336 123.258 37.9102 123.281 37.8711C123.312 37.832 123.344 37.793 123.375 37.7539C123.414 37.7148 123.445 37.6797 123.469 37.6484C123.5 37.6094 123.52 37.5859 123.527 37.5781C123.551 37.5547 123.578 37.5156 123.609 37.4609C123.648 37.4062 123.688 37.3516 123.727 37.2969C123.766 37.2344 123.801 37.1797 123.832 37.1328C123.871 37.0859 123.898 37.0508 123.914 37.0273C123.961 36.9492 124 36.8867 124.031 36.8398C124.07 36.793 124.113 36.7539 124.16 36.7227C124.207 36.6914 124.258 36.6602 124.312 36.6289C124.367 36.5977 124.438 36.5547 124.523 36.5C124.531 36.4766 124.559 36.4453 124.605 36.4062C124.652 36.3594 124.684 36.3359 124.699 36.3359C124.715 36.3203 124.742 36.3008 124.781 36.2773C124.82 36.2461 124.848 36.2305 124.863 36.2305C124.918 36.2148 124.988 36.1953 125.074 36.1719C125.168 36.1406 125.258 36.1094 125.344 36.0781C125.43 36.0469 125.504 36.0234 125.566 36.0078C125.629 35.9844 125.664 35.9727 125.672 35.9727C125.742 35.957 125.812 35.9414 125.883 35.9258C125.938 35.9102 125.992 35.8984 126.047 35.8906C126.102 35.875 126.145 35.8672 126.176 35.8672C126.434 35.8672 126.715 35.8906 127.02 35.9375C127.324 35.9766 127.594 36.0156 127.828 36.0547C127.836 36.0547 127.859 36.0664 127.898 36.0898C127.945 36.1055 127.992 36.125 128.039 36.1484C128.094 36.1641 128.145 36.1836 128.191 36.207C128.238 36.2227 128.27 36.2305 128.285 36.2305C128.371 36.2305 128.445 36.2109 128.508 36.1719C128.57 36.1328 128.629 36.0898 128.684 36.043C128.746 35.9961 128.805 35.9531 128.859 35.9141C128.922 35.875 128.996 35.8555 129.082 35.8555C129.145 35.8555 129.195 35.8828 129.234 35.9375C129.273 35.9922 129.301 36.0586 129.316 36.1367C129.34 36.207 129.352 36.2812 129.352 36.3594C129.359 36.4297 129.363 36.4844 129.363 36.5234C129.363 36.6797 129.332 36.8281 129.27 36.9688C129.215 37.1094 129.18 37.25 129.164 37.3906C129.148 37.4922 129.141 37.625 129.141 37.7891C129.141 37.9531 129.125 38.1133 129.094 38.2695C129.07 38.418 129.02 38.5508 128.941 38.668C128.871 38.7773 128.754 38.832 128.59 38.832C128.48 38.832 128.395 38.7852 128.332 38.6914C128.277 38.5898 128.23 38.4766 128.191 38.3516C128.152 38.2188 128.113 38.0859 128.074 37.9531C128.035 37.8203 127.984 37.7188 127.922 37.6484C127.828 37.5312 127.719 37.4102 127.594 37.2852C127.477 37.1602 127.348 37.0469 127.207 36.9453C127.066 36.8359 126.914 36.75 126.75 36.6875C126.594 36.6172 126.43 36.582 126.258 36.582H126.199C125.941 36.6445 125.707 36.7227 125.496 36.8164C125.293 36.9102 125.117 37.0312 124.969 37.1797C124.828 37.3281 124.719 37.5078 124.641 37.7188C124.562 37.9297 124.523 38.1836 124.523 38.4805V38.6094C124.523 38.6484 124.535 38.7031 124.559 38.7734C124.582 38.8359 124.605 38.9062 124.629 38.9844C124.66 39.0625 124.691 39.1367 124.723 39.207C124.754 39.2695 124.781 39.3125 124.805 39.3359C124.805 39.3594 124.809 39.3828 124.816 39.4062C124.832 39.4219 124.848 39.4375 124.863 39.4531C124.988 39.5625 125.09 39.6406 125.168 39.6875C125.246 39.7344 125.367 39.7734 125.531 39.8047C125.539 39.8125 125.57 39.8203 125.625 39.8281C125.68 39.8359 125.742 39.8438 125.812 39.8516C125.883 39.8516 125.949 39.8555 126.012 39.8633C126.074 39.8711 126.117 39.8789 126.141 39.8867C126.148 39.8945 126.176 39.9102 126.223 39.9336C126.277 39.9492 126.332 39.9688 126.387 39.9922C126.449 40.0078 126.504 40.0234 126.551 40.0391C126.605 40.0547 126.637 40.0625 126.645 40.0625C126.668 40.0703 126.723 40.0859 126.809 40.1094C126.902 40.125 127 40.1445 127.102 40.168C127.203 40.1914 127.297 40.2109 127.383 40.2266C127.477 40.2422 127.535 40.25 127.559 40.25C127.59 40.2656 127.637 40.2812 127.699 40.2969C127.77 40.3047 127.812 40.3164 127.828 40.332C127.836 40.3398 127.852 40.3555 127.875 40.3789C127.906 40.3945 127.938 40.4141 127.969 40.4375L128.086 40.5312C128.102 40.5391 128.137 40.5508 128.191 40.5664C128.246 40.582 128.305 40.6016 128.367 40.625C128.43 40.6406 128.484 40.6602 128.531 40.6836C128.586 40.6992 128.621 40.7109 128.637 40.7188C128.645 40.7188 128.66 40.7305 128.684 40.7539C128.715 40.7773 128.746 40.8047 128.777 40.8359C128.809 40.8594 128.836 40.8867 128.859 40.918C128.891 40.9414 128.91 40.9531 128.918 40.9531C128.926 40.9688 128.945 40.9883 128.977 41.0117C129.008 41.0273 129.043 41.0469 129.082 41.0703C129.121 41.0859 129.156 41.1016 129.188 41.1172C129.227 41.1328 129.25 41.1406 129.258 41.1406C129.578 41.375 129.809 41.6602 129.949 41.9961C130.098 42.3242 130.172 42.6875 130.172 43.0859C130.172 43.0938 130.168 43.1094 130.16 43.1328C130.16 43.1484 130.16 43.168 130.16 43.1914C130.152 43.2227 130.148 43.2539 130.148 43.2852C130.148 43.3555 130.145 43.4609 130.137 43.6016C130.129 43.7422 130.121 43.8867 130.113 44.0352C130.105 44.1758 130.098 44.3047 130.09 44.4219C130.082 44.5391 130.078 44.6094 130.078 44.6328C130.055 44.7812 129.996 44.9492 129.902 45.1367C129.816 45.3164 129.707 45.4961 129.574 45.6758C129.449 45.8477 129.316 46.0078 129.176 46.1562C129.043 46.3047 128.918 46.4219 128.801 46.5078C128.746 46.5547 128.656 46.6055 128.531 46.6602C128.406 46.7148 128.27 46.7695 128.121 46.8242C127.973 46.8711 127.828 46.918 127.688 46.9648C127.547 47.0039 127.438 47.0352 127.359 47.0586H126.398C126.336 47.0586 126.25 47.0547 126.141 47.0469C126.031 47.0391 125.922 47.0273 125.812 47.0117C125.711 47.0039 125.617 46.9961 125.531 46.9883C125.453 46.9805 125.414 46.9766 125.414 46.9766C125.391 46.9766 125.348 46.9727 125.285 46.9648C125.23 46.957 125.172 46.9492 125.109 46.9414C125.055 46.9258 125.004 46.9141 124.957 46.9062C124.91 46.8906 124.879 46.8828 124.863 46.8828C124.848 46.8828 124.805 46.875 124.734 46.8594C124.672 46.8359 124.621 46.8164 124.582 46.8008C124.496 46.7617 124.406 46.7344 124.312 46.7188C124.227 46.6953 124.137 46.6719 124.043 46.6484C123.949 46.6172 123.859 46.582 123.773 46.543C123.688 46.4961 123.605 46.4258 123.527 46.332C123.512 46.3086 123.492 46.2695 123.469 46.2148C123.445 46.1602 123.422 46.1055 123.398 46.0508C123.375 45.9883 123.352 45.9336 123.328 45.8867C123.312 45.8398 123.305 45.8047 123.305 45.7812L123.246 43.6719C123.246 43.6406 123.27 43.6055 123.316 43.5664C123.371 43.5195 123.414 43.4961 123.445 43.4961Z" fill="#eef1fb"/>
</svg>
